<mxfile host="Electron" agent="Mozilla/5.0 (Windows NT 10.0; Win64; x64) AppleWebKit/537.36 (KHTML, like Gecko) draw.io/24.7.17 Chrome/128.0.6613.36 Electron/32.0.1 Safari/537.36" version="24.7.17">
  <diagram name="PÃ¡gina-1" id="zKVaLpRVaVJMzpsZjOmP">
    <mxGraphModel dx="253" dy="263" grid="0" gridSize="10" guides="1" tooltips="1" connect="1" arrows="1" fold="1" page="1" pageScale="1" pageWidth="827" pageHeight="1169" background="#ffffff" math="0" shadow="1">
      <root>
        <mxCell id="0" />
        <mxCell id="1" parent="0" />
        <mxCell id="2Lq3ukhQ7VVJQRNL60BJ-64" value="" style="endArrow=none;html=1;rounded=0;strokeColor=#09555B;fontColor=#1A1A1A;entryX=0.496;entryY=0.983;entryDx=0;entryDy=0;exitX=0.5;exitY=0;exitDx=0;exitDy=0;entryPerimeter=0;" edge="1" parent="1" target="iBeRQEw0bHEhuUZA9688-312">
          <mxGeometry width="50" height="50" relative="1" as="geometry">
            <mxPoint x="1106.5" y="488" as="sourcePoint" />
            <mxPoint x="1106.22" y="445" as="targetPoint" />
          </mxGeometry>
        </mxCell>
        <mxCell id="iBeRQEw0bHEhuUZA9688-538" value="" style="endArrow=none;html=1;rounded=0;fontColor=default;entryX=0.484;entryY=1.054;entryDx=0;entryDy=0;entryPerimeter=0;exitX=0.619;exitY=0;exitDx=0;exitDy=0;exitPerimeter=0;labelBackgroundColor=none;strokeColor=#09555B;" parent="1" edge="1" source="iBeRQEw0bHEhuUZA9688-521">
          <mxGeometry width="50" height="50" relative="1" as="geometry">
            <mxPoint x="707.1300000000003" y="600.6300000000001" as="sourcePoint" />
            <mxPoint x="706.9470934701208" y="405.01" as="targetPoint" />
          </mxGeometry>
        </mxCell>
        <mxCell id="iBeRQEw0bHEhuUZA9688-535" value="" style="endArrow=none;dashed=1;html=1;rounded=0;fontColor=default;exitX=1.004;exitY=0.207;exitDx=0;exitDy=0;exitPerimeter=0;entryX=0.014;entryY=0.629;entryDx=0;entryDy=0;entryPerimeter=0;labelBackgroundColor=none;strokeColor=#09555B;" parent="1" target="iBeRQEw0bHEhuUZA9688-404" edge="1">
          <mxGeometry width="50" height="50" relative="1" as="geometry">
            <mxPoint x="1002.7" y="786.52" as="sourcePoint" />
            <mxPoint x="1074" y="738" as="targetPoint" />
          </mxGeometry>
        </mxCell>
        <mxCell id="iBeRQEw0bHEhuUZA9688-392" value="" style="endArrow=none;html=1;rounded=0;exitX=0.497;exitY=-0.002;exitDx=0;exitDy=0;exitPerimeter=0;labelBackgroundColor=none;fontColor=default;strokeColor=#09555B;entryX=0.566;entryY=1.001;entryDx=0;entryDy=0;entryPerimeter=0;" parent="1" source="iBeRQEw0bHEhuUZA9688-390" edge="1" target="iBeRQEw0bHEhuUZA9688-345">
          <mxGeometry width="50" height="50" relative="1" as="geometry">
            <mxPoint x="882.1399999999999" y="576.89" as="sourcePoint" />
            <mxPoint x="932" y="538" as="targetPoint" />
          </mxGeometry>
        </mxCell>
        <mxCell id="iBeRQEw0bHEhuUZA9688-381" value="" style="endArrow=none;dashed=1;html=1;rounded=0;fontColor=default;entryX=-0.011;entryY=0.728;entryDx=0;entryDy=0;entryPerimeter=0;exitX=0.989;exitY=0.618;exitDx=0;exitDy=0;exitPerimeter=0;labelBackgroundColor=none;strokeColor=#09555B;" parent="1" source="iBeRQEw0bHEhuUZA9688-372" edge="1">
          <mxGeometry width="50" height="50" relative="1" as="geometry">
            <mxPoint x="863.0600000000002" y="457.22" as="sourcePoint" />
            <mxPoint x="875.8999999999999" y="507.15399999999977" as="targetPoint" />
          </mxGeometry>
        </mxCell>
        <mxCell id="iBeRQEw0bHEhuUZA9688-268" value="" style="group;labelBackgroundColor=none;fontColor=#1A1A1A;rounded=0;" parent="1" vertex="1" connectable="0">
          <mxGeometry x="988.71" y="248" width="328.28" height="137.78" as="geometry" />
        </mxCell>
        <mxCell id="iBeRQEw0bHEhuUZA9688-258" value="Technician" style="swimlane;fontStyle=0;childLayout=stackLayout;horizontal=1;startSize=30;horizontalStack=0;resizeParent=1;resizeParentMax=0;resizeLast=0;collapsible=1;marginBottom=0;whiteSpace=wrap;html=1;labelBackgroundColor=none;rounded=0;fillColor=#FAD9D5;strokeColor=#D0CEE2;fontColor=#1A1A1A;" parent="iBeRQEw0bHEhuUZA9688-268" vertex="1">
          <mxGeometry x="137" y="82.77999999999997" width="100" height="60" as="geometry" />
        </mxCell>
        <mxCell id="iBeRQEw0bHEhuUZA9688-259" value="&lt;div&gt;Function&lt;/div&gt;&lt;div&gt;Material&lt;/div&gt;" style="text;align=left;verticalAlign=middle;spacingLeft=4;spacingRight=4;overflow=hidden;points=[[0,0.5],[1,0.5]];portConstraint=eastwest;rotatable=0;whiteSpace=wrap;html=1;labelBackgroundColor=none;rounded=0;fontColor=#1A1A1A;" parent="iBeRQEw0bHEhuUZA9688-258" vertex="1">
          <mxGeometry y="30" width="100" height="30" as="geometry" />
        </mxCell>
        <mxCell id="iBeRQEw0bHEhuUZA9688-267" value="" style="endArrow=none;html=1;rounded=0;fontColor=default;labelBackgroundColor=none;strokeColor=#09555B;exitX=0.5;exitY=0;exitDx=0;exitDy=0;" parent="iBeRQEw0bHEhuUZA9688-268" source="iBeRQEw0bHEhuUZA9688-258" edge="1">
          <mxGeometry width="50" height="50" relative="1" as="geometry">
            <mxPoint x="187.28999999999996" y="82" as="sourcePoint" />
            <mxPoint x="186.9400000000001" y="64" as="targetPoint" />
          </mxGeometry>
        </mxCell>
        <mxCell id="iBeRQEw0bHEhuUZA9688-277" value="" style="whiteSpace=wrap;html=1;shape=mxgraph.basic.document;labelBackgroundColor=none;rounded=0;fillColor=#FAD9D5;strokeColor=#D0CEE2;fontColor=#1A1A1A;" parent="iBeRQEw0bHEhuUZA9688-268" vertex="1">
          <mxGeometry x="248.28" y="93.78" width="77.72" height="20" as="geometry" />
        </mxCell>
        <mxCell id="iBeRQEw0bHEhuUZA9688-279" value="&lt;div style=&quot;text-align: left;&quot;&gt;&lt;font style=&quot;font-size: 8px;&quot;&gt;-function NOT_NULL&lt;/font&gt;&lt;/div&gt;" style="text;html=1;align=center;verticalAlign=middle;whiteSpace=wrap;rounded=0;labelBackgroundColor=none;fontColor=#1A1A1A;" parent="iBeRQEw0bHEhuUZA9688-268" vertex="1">
          <mxGeometry x="245.29" y="97.28" width="82.71" height="12" as="geometry" />
        </mxCell>
        <mxCell id="iBeRQEw0bHEhuUZA9688-629" value="" style="group;labelBackgroundColor=none;fontColor=#1A1A1A;rounded=0;" parent="iBeRQEw0bHEhuUZA9688-268" vertex="1" connectable="0">
          <mxGeometry x="248.28" y="117.78" width="80" height="20" as="geometry" />
        </mxCell>
        <mxCell id="iBeRQEw0bHEhuUZA9688-269" value="" style="whiteSpace=wrap;html=1;shape=mxgraph.basic.document;labelBackgroundColor=none;rounded=0;fillColor=#FAD9D5;strokeColor=#D0CEE2;fontColor=#1A1A1A;" parent="iBeRQEw0bHEhuUZA9688-629" vertex="1">
          <mxGeometry x="0.19111475409818754" width="77.52888524590192" height="20" as="geometry" />
        </mxCell>
        <mxCell id="iBeRQEw0bHEhuUZA9688-273" value="&lt;div&gt;&lt;span style=&quot;background-color: initial;&quot;&gt;&lt;font style=&quot;font-size: 8px;&quot;&gt;-material NOT_NULL&lt;/font&gt;&lt;/span&gt;&lt;br&gt;&lt;/div&gt;" style="text;html=1;align=left;verticalAlign=middle;whiteSpace=wrap;rounded=0;labelBackgroundColor=none;fontColor=#1A1A1A;" parent="iBeRQEw0bHEhuUZA9688-629" vertex="1">
          <mxGeometry x="-1" y="2" width="80" height="14" as="geometry" />
        </mxCell>
        <mxCell id="iBeRQEw0bHEhuUZA9688-630" value="" style="endArrow=none;dashed=1;html=1;rounded=0;fontColor=default;exitX=1.011;exitY=0.216;exitDx=0;exitDy=0;exitPerimeter=0;entryX=0.03;entryY=0.639;entryDx=0;entryDy=0;entryPerimeter=0;labelBackgroundColor=none;strokeColor=#09555B;" parent="iBeRQEw0bHEhuUZA9688-268" source="iBeRQEw0bHEhuUZA9688-259" target="iBeRQEw0bHEhuUZA9688-279" edge="1">
          <mxGeometry width="50" height="50" relative="1" as="geometry">
            <mxPoint x="237.28999999999996" y="153" as="sourcePoint" />
            <mxPoint x="287.28999999999996" y="103" as="targetPoint" />
          </mxGeometry>
        </mxCell>
        <mxCell id="iBeRQEw0bHEhuUZA9688-631" value="" style="endArrow=none;dashed=1;html=1;rounded=0;fontColor=default;exitX=1.006;exitY=0.647;exitDx=0;exitDy=0;exitPerimeter=0;entryX=0.002;entryY=0.641;entryDx=0;entryDy=0;entryPerimeter=0;labelBackgroundColor=none;strokeColor=#09555B;" parent="iBeRQEw0bHEhuUZA9688-268" source="iBeRQEw0bHEhuUZA9688-259" target="iBeRQEw0bHEhuUZA9688-273" edge="1">
          <mxGeometry width="50" height="50" relative="1" as="geometry">
            <mxPoint x="237.28999999999996" y="153" as="sourcePoint" />
            <mxPoint x="287.28999999999996" y="103" as="targetPoint" />
          </mxGeometry>
        </mxCell>
        <mxCell id="iBeRQEw0bHEhuUZA9688-296" value="Person" style="swimlane;fontStyle=0;childLayout=stackLayout;horizontal=1;startSize=30;horizontalStack=0;resizeParent=1;resizeParentMax=0;resizeLast=0;collapsible=1;marginBottom=0;whiteSpace=wrap;html=1;labelBackgroundColor=none;fillColor=#FAD9D5;strokeColor=#D0CEE2;fontColor=#1A1A1A;rounded=0;" parent="1" vertex="1">
          <mxGeometry x="599.06" y="115" width="141" height="140" as="geometry" />
        </mxCell>
        <mxCell id="iBeRQEw0bHEhuUZA9688-297" value="IdPerson (pk)" style="text;strokeColor=none;fillColor=none;align=left;verticalAlign=middle;spacingLeft=4;spacingRight=4;overflow=hidden;points=[[0,0.5],[1,0.5]];portConstraint=eastwest;rotatable=0;whiteSpace=wrap;html=1;labelBackgroundColor=none;fontColor=#1A1A1A;rounded=0;" parent="iBeRQEw0bHEhuUZA9688-296" vertex="1">
          <mxGeometry y="30" width="141" height="19" as="geometry" />
        </mxCell>
        <mxCell id="iBeRQEw0bHEhuUZA9688-298" value="Name" style="text;strokeColor=none;fillColor=none;align=left;verticalAlign=middle;spacingLeft=4;spacingRight=4;overflow=hidden;points=[[0,0.5],[1,0.5]];portConstraint=eastwest;rotatable=0;whiteSpace=wrap;html=1;labelBackgroundColor=none;fontColor=#1A1A1A;rounded=0;" parent="iBeRQEw0bHEhuUZA9688-296" vertex="1">
          <mxGeometry y="49" width="141" height="22" as="geometry" />
        </mxCell>
        <mxCell id="iBeRQEw0bHEhuUZA9688-299" value="Age" style="text;strokeColor=none;fillColor=none;align=left;verticalAlign=middle;spacingLeft=4;spacingRight=4;overflow=hidden;points=[[0,0.5],[1,0.5]];portConstraint=eastwest;rotatable=0;whiteSpace=wrap;html=1;labelBackgroundColor=none;fontColor=#1A1A1A;rounded=0;" parent="iBeRQEw0bHEhuUZA9688-296" vertex="1">
          <mxGeometry y="71" width="141" height="21" as="geometry" />
        </mxCell>
        <mxCell id="2Lq3ukhQ7VVJQRNL60BJ-2" value="Email" style="text;strokeColor=none;fillColor=none;align=left;verticalAlign=middle;spacingLeft=4;spacingRight=4;overflow=hidden;points=[[0,0.5],[1,0.5]];portConstraint=eastwest;rotatable=0;whiteSpace=wrap;html=1;labelBackgroundColor=none;fontColor=#1A1A1A;rounded=0;" vertex="1" parent="iBeRQEw0bHEhuUZA9688-296">
          <mxGeometry y="92" width="141" height="26" as="geometry" />
        </mxCell>
        <mxCell id="2Lq3ukhQ7VVJQRNL60BJ-74" value="Nationality" style="text;strokeColor=none;fillColor=none;align=left;verticalAlign=middle;spacingLeft=4;spacingRight=4;overflow=hidden;points=[[0,0.5],[1,0.5]];portConstraint=eastwest;rotatable=0;whiteSpace=wrap;html=1;labelBackgroundColor=none;fontColor=#1A1A1A;rounded=0;" vertex="1" parent="iBeRQEw0bHEhuUZA9688-296">
          <mxGeometry y="118" width="141" height="22" as="geometry" />
        </mxCell>
        <mxCell id="iBeRQEw0bHEhuUZA9688-270" value="Local Technician" style="swimlane;fontStyle=0;childLayout=stackLayout;horizontal=1;startSize=30;horizontalStack=0;resizeParent=1;resizeParentMax=0;resizeLast=0;collapsible=1;marginBottom=0;whiteSpace=wrap;html=1;labelBackgroundColor=none;rounded=0;fillColor=#FAD9D5;strokeColor=#D0CEE2;fontColor=#1A1A1A;" parent="1" vertex="1">
          <mxGeometry x="1174.71" y="414.89" width="114.73" height="50" as="geometry" />
        </mxCell>
        <mxCell id="iBeRQEw0bHEhuUZA9688-271" value="Address (fk)" style="text;strokeColor=none;fillColor=none;align=left;verticalAlign=middle;spacingLeft=4;spacingRight=4;overflow=hidden;points=[[0,0.5],[1,0.5]];portConstraint=eastwest;rotatable=0;whiteSpace=wrap;html=1;labelBackgroundColor=none;rounded=0;fontColor=#1A1A1A;" parent="iBeRQEw0bHEhuUZA9688-270" vertex="1">
          <mxGeometry y="30" width="114.73" height="20" as="geometry" />
        </mxCell>
        <mxCell id="iBeRQEw0bHEhuUZA9688-312" value="Styling Technician" style="swimlane;fontStyle=0;childLayout=stackLayout;horizontal=1;startSize=30;horizontalStack=0;resizeParent=1;resizeParentMax=0;resizeLast=0;collapsible=1;marginBottom=0;whiteSpace=wrap;html=1;labelBackgroundColor=none;rounded=0;fillColor=#FAD9D5;strokeColor=#D0CEE2;fontColor=#1A1A1A;" parent="1" vertex="1">
          <mxGeometry x="1046.72" y="414.89" width="121" height="30.11" as="geometry" />
        </mxCell>
        <mxCell id="iBeRQEw0bHEhuUZA9688-341" value="" style="endArrow=none;dashed=1;html=1;rounded=0;labelBackgroundColor=none;fontColor=default;exitX=0.997;exitY=0.819;exitDx=0;exitDy=0;exitPerimeter=0;entryX=0;entryY=0.5;entryDx=0;entryDy=0;strokeColor=#09555B;" parent="1" source="iBeRQEw0bHEhuUZA9688-337" edge="1">
          <mxGeometry width="50" height="50" relative="1" as="geometry">
            <mxPoint x="569.2" y="159.48000000000002" as="sourcePoint" />
            <mxPoint x="599.06" y="174" as="targetPoint" />
          </mxGeometry>
        </mxCell>
        <mxCell id="iBeRQEw0bHEhuUZA9688-343" value="" style="group;labelBackgroundColor=none;fontColor=#1A1A1A;rounded=0;" parent="1" vertex="1" connectable="0">
          <mxGeometry x="414" y="141" width="151.29" height="24" as="geometry" />
        </mxCell>
        <mxCell id="iBeRQEw0bHEhuUZA9688-336" value="" style="whiteSpace=wrap;html=1;shape=mxgraph.basic.document;labelBackgroundColor=none;rounded=0;fillColor=#FAD9D5;strokeColor=#D0CEE2;fontColor=#1A1A1A;" parent="iBeRQEw0bHEhuUZA9688-343" vertex="1">
          <mxGeometry x="20.99609679937549" y="-6" width="130.29390320062453" height="30" as="geometry" />
        </mxCell>
        <mxCell id="iBeRQEw0bHEhuUZA9688-337" value="&lt;font style=&quot;font-size: 8px;&quot;&gt;&lt;span style=&quot;background-color: initial;&quot;&gt;&amp;nbsp;&lt;/span&gt;&lt;font style=&quot;background-color: initial;&quot;&gt;-age NOT_NULL&lt;br&gt;&amp;nbsp;CHECK&amp;nbsp;&lt;/font&gt;&lt;/font&gt;&lt;font style=&quot;font-size: 8px; background-color: initial;&quot;&gt;(age&amp;gt;=10 AND age&amp;lt;200)&lt;/font&gt;&lt;span style=&quot;font-size: 8px; background-color: initial;&quot;&gt;&amp;nbsp;&lt;/span&gt;" style="text;html=1;align=left;verticalAlign=middle;whiteSpace=wrap;rounded=0;labelBackgroundColor=none;fontColor=#1A1A1A;" parent="iBeRQEw0bHEhuUZA9688-343" vertex="1">
          <mxGeometry x="22.30835284933646" y="-1.4" width="129.91334894613584" height="16.8" as="geometry" />
        </mxCell>
        <mxCell id="iBeRQEw0bHEhuUZA9688-344" value="Model" style="swimlane;fontStyle=0;childLayout=stackLayout;horizontal=1;startSize=30;horizontalStack=0;resizeParent=1;resizeParentMax=0;resizeLast=0;collapsible=1;marginBottom=0;whiteSpace=wrap;html=1;labelBackgroundColor=none;rounded=0;fillColor=#FAD9D5;strokeColor=#D0CEE2;fontColor=#1A1A1A;" parent="1" vertex="1">
          <mxGeometry x="875" y="405.89" width="100" height="128" as="geometry" />
        </mxCell>
        <mxCell id="iBeRQEw0bHEhuUZA9688-345" value="&lt;div style=&quot;&quot;&gt;&lt;div&gt;&lt;span style=&quot;background-color: initial;&quot;&gt;Bust&lt;/span&gt;&lt;br&gt;&lt;/div&gt;&lt;div&gt;Waist&lt;/div&gt;&lt;div&gt;Hips&lt;/div&gt;&lt;div&gt;Height&lt;/div&gt;&lt;div&gt;Weight&lt;/div&gt;&lt;div&gt;Health Issues&lt;/div&gt;&lt;/div&gt;" style="text;html=1;align=left;verticalAlign=middle;resizable=0;points=[];autosize=1;strokeColor=none;fillColor=none;labelBackgroundColor=none;rounded=0;fontColor=#1A1A1A;" parent="iBeRQEw0bHEhuUZA9688-344" vertex="1">
          <mxGeometry y="30" width="100" height="98" as="geometry" />
        </mxCell>
        <mxCell id="iBeRQEw0bHEhuUZA9688-348" value="Designer" style="swimlane;fontStyle=0;childLayout=stackLayout;horizontal=1;startSize=30;horizontalStack=0;resizeParent=1;resizeParentMax=0;resizeLast=0;collapsible=1;marginBottom=0;whiteSpace=wrap;html=1;labelBackgroundColor=none;rounded=0;fillColor=#FAD9D5;strokeColor=#D0CEE2;fontColor=#1A1A1A;" parent="1" vertex="1">
          <mxGeometry x="120" y="515" width="90" height="78" as="geometry" />
        </mxCell>
        <mxCell id="iBeRQEw0bHEhuUZA9688-349" value="&lt;div&gt;&lt;span style=&quot;background-color: initial;&quot;&gt;Photography&lt;/span&gt;&lt;/div&gt;&lt;div&gt;Biography&amp;nbsp;&lt;/div&gt;" style="text;strokeColor=none;fillColor=none;align=left;verticalAlign=middle;spacingLeft=4;spacingRight=4;overflow=hidden;points=[[0,0.5],[1,0.5]];portConstraint=eastwest;rotatable=0;whiteSpace=wrap;html=1;labelBackgroundColor=none;rounded=0;fontColor=#1A1A1A;" parent="iBeRQEw0bHEhuUZA9688-348" vertex="1">
          <mxGeometry y="30" width="90" height="48" as="geometry" />
        </mxCell>
        <mxCell id="iBeRQEw0bHEhuUZA9688-280" value="" style="endArrow=none;dashed=1;html=1;rounded=0;labelBackgroundColor=none;fontColor=default;entryX=0;entryY=0.5;entryDx=0;entryDy=0;exitX=1;exitY=0.5;exitDx=0;exitDy=0;strokeColor=#09555B;" parent="1" source="iBeRQEw0bHEhuUZA9688-271" edge="1">
          <mxGeometry width="50" height="50" relative="1" as="geometry">
            <mxPoint x="1281.21" y="454.89" as="sourcePoint" />
            <mxPoint x="1301.19" y="448.89" as="targetPoint" />
          </mxGeometry>
        </mxCell>
        <mxCell id="iBeRQEw0bHEhuUZA9688-358" value="" style="group;labelBackgroundColor=none;fontColor=#1A1A1A;rounded=0;" parent="1" vertex="1" connectable="0">
          <mxGeometry x="1297.19" y="438.89" width="96.81" height="22" as="geometry" />
        </mxCell>
        <mxCell id="iBeRQEw0bHEhuUZA9688-274" value="" style="whiteSpace=wrap;html=1;shape=mxgraph.basic.document;labelBackgroundColor=none;rounded=0;container=0;fillColor=#FAD9D5;strokeColor=#D0CEE2;fontColor=#1A1A1A;" parent="iBeRQEw0bHEhuUZA9688-358" vertex="1">
          <mxGeometry y="2" width="80.07924615384614" height="20" as="geometry" />
        </mxCell>
        <mxCell id="iBeRQEw0bHEhuUZA9688-275" value="&lt;div&gt;&lt;br&gt;&lt;/div&gt;" style="text;html=1;align=left;verticalAlign=middle;whiteSpace=wrap;rounded=0;labelBackgroundColor=none;container=0;fontColor=#1A1A1A;" parent="iBeRQEw0bHEhuUZA9688-358" vertex="1">
          <mxGeometry x="4.443330769230678" y="4" width="75.63591538461539" height="15" as="geometry" />
        </mxCell>
        <mxCell id="iBeRQEw0bHEhuUZA9688-276" value="&lt;span style=&quot;text-align: left;&quot;&gt;&lt;font style=&quot;font-size: 8px;&quot;&gt;-address NOT_NULL&lt;/font&gt;&lt;/span&gt;" style="text;html=1;align=center;verticalAlign=middle;whiteSpace=wrap;rounded=0;labelBackgroundColor=none;container=0;fontColor=#1A1A1A;" parent="iBeRQEw0bHEhuUZA9688-358" vertex="1">
          <mxGeometry x="-9.381222089097047" width="96.80999999999999" height="20" as="geometry" />
        </mxCell>
        <mxCell id="iBeRQEw0bHEhuUZA9688-361" value="" style="endArrow=none;html=1;rounded=0;fontColor=default;exitX=0.5;exitY=0;exitDx=0;exitDy=0;labelBackgroundColor=none;strokeColor=#09555B;" parent="1" source="iBeRQEw0bHEhuUZA9688-344" edge="1">
          <mxGeometry width="50" height="50" relative="1" as="geometry">
            <mxPoint x="925" y="372" as="sourcePoint" />
            <mxPoint x="925.06" y="312.89" as="targetPoint" />
          </mxGeometry>
        </mxCell>
        <mxCell id="iBeRQEw0bHEhuUZA9688-364" value="&lt;font style=&quot;font-size: 12px;&quot;&gt;1&lt;/font&gt;" style="text;html=1;align=center;verticalAlign=middle;resizable=0;points=[];autosize=1;strokeColor=none;fillColor=none;labelBackgroundColor=none;fontColor=#1A1A1A;rounded=0;" parent="1" vertex="1">
          <mxGeometry x="969" y="495.89" width="25" height="26" as="geometry" />
        </mxCell>
        <mxCell id="iBeRQEw0bHEhuUZA9688-376" value="" style="group;labelBackgroundColor=none;fontColor=#1A1A1A;rounded=0;" parent="1" vertex="1" connectable="0">
          <mxGeometry x="722" y="420" width="144" height="32" as="geometry" />
        </mxCell>
        <mxCell id="iBeRQEw0bHEhuUZA9688-370" value="" style="whiteSpace=wrap;html=1;shape=mxgraph.basic.document;labelBackgroundColor=none;rounded=0;fillColor=#FAD9D5;strokeColor=#D0CEE2;fontColor=#1A1A1A;" parent="iBeRQEw0bHEhuUZA9688-376" vertex="1">
          <mxGeometry width="144" height="32" as="geometry" />
        </mxCell>
        <mxCell id="iBeRQEw0bHEhuUZA9688-371" value="&lt;div&gt;&lt;font style=&quot;font-size: 8px;&quot;&gt;-bust, waist, hips NOT_NULL CHECK&lt;/font&gt;&lt;/div&gt;&lt;div&gt;&lt;font style=&quot;font-size: 6px;&quot;&gt;(bust, waits, hips&amp;gt;10 AND bust, waist, hips&amp;lt;100)&lt;/font&gt;&lt;/div&gt;" style="text;html=1;align=left;verticalAlign=middle;whiteSpace=wrap;rounded=0;labelBackgroundColor=none;fontColor=#1A1A1A;" parent="iBeRQEw0bHEhuUZA9688-376" vertex="1">
          <mxGeometry x="2" y="4" width="138" height="23" as="geometry" />
        </mxCell>
        <mxCell id="iBeRQEw0bHEhuUZA9688-378" value="" style="group;labelBackgroundColor=none;fontColor=#1A1A1A;rounded=0;" parent="1" vertex="1" connectable="0">
          <mxGeometry x="744" y="456" width="132" height="30" as="geometry" />
        </mxCell>
        <mxCell id="iBeRQEw0bHEhuUZA9688-374" value="" style="whiteSpace=wrap;html=1;shape=mxgraph.basic.document;labelBackgroundColor=none;rounded=0;fillColor=#FAD9D5;strokeColor=#D0CEE2;fontColor=#1A1A1A;" parent="iBeRQEw0bHEhuUZA9688-378" vertex="1">
          <mxGeometry width="121.67240223463679" height="30" as="geometry" />
        </mxCell>
        <mxCell id="iBeRQEw0bHEhuUZA9688-375" value="&lt;div&gt;&lt;font style=&quot;font-size: 8px;&quot;&gt;&lt;font style=&quot;&quot;&gt;&lt;span style=&quot;background-color: initial;&quot;&gt;-weight NOT_NULL&amp;nbsp;&lt;/span&gt;&lt;/font&gt;&lt;/font&gt;&lt;/div&gt;&lt;div&gt;&lt;font style=&quot;font-size: 8px;&quot;&gt;&lt;font style=&quot;&quot;&gt;&lt;span style=&quot;background-color: initial;&quot;&gt;CHECK&lt;/span&gt;&lt;/font&gt;&lt;span style=&quot;background-color: initial;&quot;&gt;&amp;nbsp;&lt;/span&gt;&lt;/font&gt;&lt;span style=&quot;background-color: initial; font-size: 6px;&quot;&gt;(weight &amp;gt; 10 AND weight &amp;lt;1000)&lt;/span&gt;&lt;/div&gt;" style="text;html=1;align=left;verticalAlign=middle;whiteSpace=wrap;rounded=0;labelBackgroundColor=none;fontColor=#1A1A1A;" parent="iBeRQEw0bHEhuUZA9688-378" vertex="1">
          <mxGeometry x="0.08000000000000007" y="6" width="129.92" height="14" as="geometry" />
        </mxCell>
        <mxCell id="iBeRQEw0bHEhuUZA9688-380" value="" style="endArrow=none;dashed=1;html=1;rounded=0;fontColor=default;entryX=-0.003;entryY=0.057;entryDx=0;entryDy=0;entryPerimeter=0;exitX=1;exitY=0.5;exitDx=0;exitDy=0;exitPerimeter=0;labelBackgroundColor=none;strokeColor=#09555B;" parent="1" source="iBeRQEw0bHEhuUZA9688-370" edge="1">
          <mxGeometry width="50" height="50" relative="1" as="geometry">
            <mxPoint x="841.8" y="389.19" as="sourcePoint" />
            <mxPoint x="876.7" y="431.3309999999999" as="targetPoint" />
          </mxGeometry>
        </mxCell>
        <mxCell id="iBeRQEw0bHEhuUZA9688-382" value="" style="endArrow=none;dashed=1;html=1;rounded=0;fontColor=default;entryX=-0.024;entryY=0.415;entryDx=0;entryDy=0;entryPerimeter=0;exitX=1.005;exitY=0.561;exitDx=0;exitDy=0;exitPerimeter=0;labelBackgroundColor=none;strokeColor=#09555B;" parent="1" source="iBeRQEw0bHEhuUZA9688-374" edge="1">
          <mxGeometry width="50" height="50" relative="1" as="geometry">
            <mxPoint x="853.2123334078212" y="479.26" as="sourcePoint" />
            <mxPoint x="875.5999999999999" y="470.5400000000001" as="targetPoint" />
          </mxGeometry>
        </mxCell>
        <mxCell id="iBeRQEw0bHEhuUZA9688-383" value="Runway" style="swimlane;fontStyle=0;childLayout=stackLayout;horizontal=1;startSize=30;horizontalStack=0;resizeParent=1;resizeParentMax=0;resizeLast=0;collapsible=1;marginBottom=0;whiteSpace=wrap;html=1;labelBackgroundColor=none;rounded=0;fillColor=#FAD9D5;strokeColor=#D0CEE2;fontColor=#1A1A1A;" parent="1" vertex="1">
          <mxGeometry x="862.1400000000001" y="744.89" width="140" height="120" as="geometry" />
        </mxCell>
        <mxCell id="iBeRQEw0bHEhuUZA9688-384" value="&lt;div&gt;&lt;span style=&quot;background-color: initial;&quot;&gt;IdShow (pk&lt;/span&gt;&lt;span style=&quot;background-color: initial;&quot;&gt;)&lt;/span&gt;&lt;/div&gt;&lt;div&gt;&lt;span style=&quot;background-color: initial;&quot;&gt;Address (fk)&lt;/span&gt;&lt;/div&gt;&lt;div&gt;&lt;span style=&quot;background-color: initial;&quot;&gt;BName (fk)&lt;/span&gt;&lt;/div&gt;Date&amp;nbsp;&lt;div&gt;Time&lt;/div&gt;&lt;div&gt;Budget&lt;/div&gt;" style="text;strokeColor=none;fillColor=none;align=left;verticalAlign=middle;spacingLeft=4;spacingRight=4;overflow=hidden;points=[[0,0.5],[1,0.5]];portConstraint=eastwest;rotatable=0;whiteSpace=wrap;html=1;labelBackgroundColor=none;rounded=0;fontColor=#1A1A1A;" parent="iBeRQEw0bHEhuUZA9688-383" vertex="1">
          <mxGeometry y="30" width="140" height="90" as="geometry" />
        </mxCell>
        <mxCell id="iBeRQEw0bHEhuUZA9688-388" value="*" style="text;html=1;align=center;verticalAlign=middle;whiteSpace=wrap;rounded=0;labelBackgroundColor=none;fontColor=#1A1A1A;" parent="1" vertex="1">
          <mxGeometry x="928.6399999999999" y="613.89" width="17" height="30" as="geometry" />
        </mxCell>
        <mxCell id="iBeRQEw0bHEhuUZA9688-389" value="*" style="text;html=1;align=center;verticalAlign=middle;whiteSpace=wrap;rounded=0;labelBackgroundColor=none;fontColor=#1A1A1A;" parent="1" vertex="1">
          <mxGeometry x="933.6399999999999" y="719.89" width="9" as="geometry" />
        </mxCell>
        <mxCell id="iBeRQEw0bHEhuUZA9688-390" value="Model_Runway" style="swimlane;fontStyle=0;childLayout=stackLayout;horizontal=1;startSize=30;horizontalStack=0;resizeParent=1;resizeParentMax=0;resizeLast=0;collapsible=1;marginBottom=0;whiteSpace=wrap;html=1;labelBackgroundColor=none;rounded=0;fillColor=#FAD9D5;strokeColor=#D0CEE2;fontColor=#1A1A1A;" parent="1" vertex="1">
          <mxGeometry x="872.1399999999999" y="632.89" width="120" height="80" as="geometry" />
        </mxCell>
        <mxCell id="iBeRQEw0bHEhuUZA9688-391" value="IdShow (pk)(fk)&lt;div&gt;IdModel (pk)(fk)&lt;/div&gt;&lt;div&gt;Order&amp;nbsp;&lt;/div&gt;" style="text;strokeColor=none;fillColor=none;align=left;verticalAlign=middle;spacingLeft=4;spacingRight=4;overflow=hidden;points=[[0,0.5],[1,0.5]];portConstraint=eastwest;rotatable=0;whiteSpace=wrap;html=1;labelBackgroundColor=none;rounded=0;fontColor=#1A1A1A;" parent="iBeRQEw0bHEhuUZA9688-390" vertex="1">
          <mxGeometry y="30" width="120" height="50" as="geometry" />
        </mxCell>
        <mxCell id="iBeRQEw0bHEhuUZA9688-393" value="1" style="text;html=1;align=center;verticalAlign=middle;whiteSpace=wrap;rounded=0;labelBackgroundColor=none;fontColor=#1A1A1A;" parent="1" vertex="1">
          <mxGeometry x="933" y="538" width="8.64" height="14.89" as="geometry" />
        </mxCell>
        <mxCell id="iBeRQEw0bHEhuUZA9688-394" value="" style="endArrow=none;html=1;rounded=0;exitX=-0.21;exitY=0.809;exitDx=0;exitDy=0;exitPerimeter=0;labelBackgroundColor=none;fontColor=default;strokeColor=#09555B;" parent="1" edge="1">
          <mxGeometry width="50" height="50" relative="1" as="geometry">
            <mxPoint x="932.1399999999999" y="743.89" as="sourcePoint" />
            <mxPoint x="932.1399999999999" y="712.89" as="targetPoint" />
          </mxGeometry>
        </mxCell>
        <mxCell id="iBeRQEw0bHEhuUZA9688-398" value="" style="group;labelBackgroundColor=none;fontColor=#1A1A1A;rounded=0;" parent="1" vertex="1" connectable="0">
          <mxGeometry x="767" y="641" width="112" height="33" as="geometry" />
        </mxCell>
        <mxCell id="iBeRQEw0bHEhuUZA9688-387" value="" style="whiteSpace=wrap;html=1;shape=mxgraph.basic.document;align=left;labelBackgroundColor=none;rounded=0;fillColor=#FAD9D5;strokeColor=#D0CEE2;fontColor=#1A1A1A;" parent="iBeRQEw0bHEhuUZA9688-398" vertex="1">
          <mxGeometry x="1.130275229357798" y="-1.03480714957667" width="99.56697247706421" height="34.03480714957668" as="geometry" />
        </mxCell>
        <mxCell id="iBeRQEw0bHEhuUZA9688-397" value="&lt;font style=&quot;font-size: 8px;&quot;&gt;-order NOT_NULL CHECK&lt;/font&gt;&lt;div&gt;&lt;font style=&quot;font-size: 6px;&quot;&gt;(order&amp;gt;0 AND order&amp;lt;100)&lt;/font&gt;&lt;/div&gt;" style="text;html=1;align=center;verticalAlign=middle;whiteSpace=wrap;rounded=0;labelBackgroundColor=none;fontColor=#1A1A1A;" parent="iBeRQEw0bHEhuUZA9688-398" vertex="1">
          <mxGeometry x="0.10181818181818181" width="99.67999999999999" height="32.10702341137124" as="geometry" />
        </mxCell>
        <mxCell id="iBeRQEw0bHEhuUZA9688-401" value="" style="whiteSpace=wrap;html=1;shape=mxgraph.basic.document;labelBackgroundColor=none;rounded=0;fillColor=#FAD9D5;strokeColor=#D0CEE2;fontColor=#1A1A1A;" parent="1" vertex="1">
          <mxGeometry x="1021.3" y="727.89" width="78.7" height="19" as="geometry" />
        </mxCell>
        <mxCell id="iBeRQEw0bHEhuUZA9688-406" value="&lt;span style=&quot;&quot;&gt;&lt;font style=&quot;font-size: 8px;&quot;&gt;-bname NOT_NULL&lt;/font&gt;&lt;/span&gt;" style="text;html=1;align=left;verticalAlign=middle;whiteSpace=wrap;rounded=0;labelBackgroundColor=none;fontColor=#1A1A1A;" parent="1" vertex="1">
          <mxGeometry x="1022.38" y="725.89" width="76.62" height="19" as="geometry" />
        </mxCell>
        <mxCell id="iBeRQEw0bHEhuUZA9688-410" value="" style="group;labelBackgroundColor=none;fontColor=#1A1A1A;rounded=0;" parent="1" vertex="1" connectable="0">
          <mxGeometry x="1019.9" y="746.89" width="73.1" height="15.47" as="geometry" />
        </mxCell>
        <mxCell id="iBeRQEw0bHEhuUZA9688-402" value="" style="whiteSpace=wrap;html=1;shape=mxgraph.basic.document;labelBackgroundColor=none;rounded=0;fillColor=#FAD9D5;strokeColor=#D0CEE2;fontColor=#1A1A1A;" parent="iBeRQEw0bHEhuUZA9688-410" vertex="1">
          <mxGeometry x="2.32" y="2" width="67.68" height="13.47" as="geometry" />
        </mxCell>
        <mxCell id="iBeRQEw0bHEhuUZA9688-404" value="&lt;div style=&quot;text-align: left;&quot;&gt;&lt;font style=&quot;font-size: 8px;&quot;&gt;-date NOT_NULL&lt;/font&gt;&lt;br&gt;&lt;/div&gt;" style="text;html=1;align=center;verticalAlign=middle;whiteSpace=wrap;rounded=0;labelBackgroundColor=none;fontColor=#1A1A1A;" parent="iBeRQEw0bHEhuUZA9688-410" vertex="1">
          <mxGeometry x="1.9467376830892145" width="64.94296825396825" height="13.469999999999978" as="geometry" />
        </mxCell>
        <mxCell id="iBeRQEw0bHEhuUZA9688-411" value="" style="group;labelBackgroundColor=none;fontColor=#1A1A1A;rounded=0;" parent="1" vertex="1" connectable="0">
          <mxGeometry x="1021.57" y="763.89" width="68.43" height="18.11" as="geometry" />
        </mxCell>
        <mxCell id="iBeRQEw0bHEhuUZA9688-399" value="" style="whiteSpace=wrap;html=1;shape=mxgraph.basic.document;labelBackgroundColor=none;rounded=0;fillColor=#FAD9D5;strokeColor=#D0CEE2;fontColor=#1A1A1A;" parent="iBeRQEw0bHEhuUZA9688-411" vertex="1">
          <mxGeometry y="1.8574358974358973" width="65.76537727272726" height="16.2525641025641" as="geometry" />
        </mxCell>
        <mxCell id="iBeRQEw0bHEhuUZA9688-400" value="&lt;div&gt;&lt;div&gt;&lt;font style=&quot;font-size: 8px;&quot;&gt;-time NOT_NULL&lt;/font&gt;&lt;/div&gt;&lt;/div&gt;" style="text;html=1;align=left;verticalAlign=middle;whiteSpace=wrap;rounded=0;labelBackgroundColor=none;fontColor=#1A1A1A;" parent="iBeRQEw0bHEhuUZA9688-411" vertex="1">
          <mxGeometry x="-0.09796818181818179" width="67.52796818181818" height="16.2525641025641" as="geometry" />
        </mxCell>
        <mxCell id="iBeRQEw0bHEhuUZA9688-416" value="Event" style="swimlane;fontStyle=0;childLayout=stackLayout;horizontal=1;startSize=30;horizontalStack=0;resizeParent=1;resizeParentMax=0;resizeLast=0;collapsible=1;marginBottom=0;whiteSpace=wrap;html=1;labelBackgroundColor=none;rounded=0;fillColor=#FAD9D5;strokeColor=#D0CEE2;fontColor=#1A1A1A;" parent="1" vertex="1">
          <mxGeometry x="1132.4399999999998" y="632.89" width="140" height="80" as="geometry" />
        </mxCell>
        <mxCell id="iBeRQEw0bHEhuUZA9688-425" value="" style="endArrow=none;dashed=1;html=1;rounded=0;fontColor=default;entryX=0;entryY=0.5;entryDx=0;entryDy=0;labelBackgroundColor=none;strokeColor=#09555B;" parent="iBeRQEw0bHEhuUZA9688-416" target="iBeRQEw0bHEhuUZA9688-416" edge="1">
          <mxGeometry width="50" height="50" relative="1" as="geometry">
            <mxPoint x="-15.939999999999827" y="31" as="sourcePoint" />
            <mxPoint x="34.06000000000017" y="-19" as="targetPoint" />
          </mxGeometry>
        </mxCell>
        <mxCell id="iBeRQEw0bHEhuUZA9688-417" value="&lt;div&gt;Address (pk)&lt;br&gt;&lt;/div&gt;&lt;div&gt;Budget&lt;/div&gt;&lt;div&gt;Responsible Entity&lt;/div&gt;" style="text;strokeColor=none;fillColor=none;align=left;verticalAlign=middle;spacingLeft=4;spacingRight=4;overflow=hidden;points=[[0,0.5],[1,0.5]];portConstraint=eastwest;rotatable=0;whiteSpace=wrap;html=1;labelBackgroundColor=none;rounded=0;fontColor=#1A1A1A;" parent="iBeRQEw0bHEhuUZA9688-416" vertex="1">
          <mxGeometry y="30" width="140" height="50" as="geometry" />
        </mxCell>
        <mxCell id="iBeRQEw0bHEhuUZA9688-420" value="" style="endArrow=none;html=1;rounded=0;fontColor=default;exitX=1;exitY=0.5;exitDx=0;exitDy=0;entryX=0.495;entryY=1.009;entryDx=0;entryDy=0;entryPerimeter=0;labelBackgroundColor=none;strokeColor=#09555B;" parent="1" source="iBeRQEw0bHEhuUZA9688-384" target="iBeRQEw0bHEhuUZA9688-417" edge="1">
          <mxGeometry width="50" height="50" relative="1" as="geometry">
            <mxPoint x="1162.71" y="762.89" as="sourcePoint" />
            <mxPoint x="1213" y="714.89" as="targetPoint" />
            <Array as="points">
              <mxPoint x="1201" y="819.89" />
            </Array>
          </mxGeometry>
        </mxCell>
        <mxCell id="iBeRQEw0bHEhuUZA9688-421" value="" style="endArrow=none;html=1;rounded=0;fontColor=default;exitX=0.598;exitY=0;exitDx=0;exitDy=0;exitPerimeter=0;labelBackgroundColor=none;strokeColor=#09555B;entryX=0.363;entryY=0.963;entryDx=0;entryDy=0;entryPerimeter=0;" parent="1" source="iBeRQEw0bHEhuUZA9688-416" edge="1" target="iBeRQEw0bHEhuUZA9688-271">
          <mxGeometry width="50" height="50" relative="1" as="geometry">
            <mxPoint x="1217" y="575" as="sourcePoint" />
            <mxPoint x="1215.32" y="465.37" as="targetPoint" />
          </mxGeometry>
        </mxCell>
        <mxCell id="iBeRQEw0bHEhuUZA9688-422" value="&lt;span style=&quot;text-align: left;&quot;&gt;&lt;font style=&quot;font-size: 8px;&quot;&gt;-budget NOT_NULL&lt;/font&gt;&lt;/span&gt;" style="whiteSpace=wrap;html=1;shape=mxgraph.basic.document;labelBackgroundColor=none;rounded=0;fillColor=#FAD9D5;strokeColor=#D0CEE2;fontColor=#1A1A1A;" parent="1" vertex="1">
          <mxGeometry x="1039" y="676.89" width="77.5" height="18" as="geometry" />
        </mxCell>
        <mxCell id="iBeRQEw0bHEhuUZA9688-423" value="" style="whiteSpace=wrap;html=1;shape=mxgraph.basic.document;labelBackgroundColor=none;rounded=0;fillColor=#FAD9D5;strokeColor=#D0CEE2;fontColor=#1A1A1A;" parent="1" vertex="1">
          <mxGeometry x="1005" y="651.14" width="112.71" height="21.5" as="geometry" />
        </mxCell>
        <mxCell id="iBeRQEw0bHEhuUZA9688-424" value="&lt;div style=&quot;text-align: left;&quot;&gt;&lt;div&gt;&lt;font style=&quot;font-size: 8px;&quot;&gt;-responsible entity NOT_NULL&lt;/font&gt;&lt;/div&gt;&lt;/div&gt;" style="text;html=1;align=center;verticalAlign=middle;whiteSpace=wrap;rounded=0;labelBackgroundColor=none;fontColor=#1A1A1A;" parent="1" vertex="1">
          <mxGeometry x="1005.42" y="653.89" width="110.58" height="14.5" as="geometry" />
        </mxCell>
        <mxCell id="iBeRQEw0bHEhuUZA9688-426" value="" style="endArrow=none;dashed=1;html=1;rounded=0;fontColor=default;entryX=0;entryY=0.5;entryDx=0;entryDy=0;labelBackgroundColor=none;strokeColor=#09555B;" parent="1" edge="1">
          <mxGeometry width="50" height="50" relative="1" as="geometry">
            <mxPoint x="1116.5" y="685.89" as="sourcePoint" />
            <mxPoint x="1132.4399999999998" y="694.89" as="targetPoint" />
          </mxGeometry>
        </mxCell>
        <mxCell id="iBeRQEw0bHEhuUZA9688-428" value="Sponsor" style="swimlane;fontStyle=0;childLayout=stackLayout;horizontal=1;startSize=30;horizontalStack=0;resizeParent=1;resizeParentMax=0;resizeLast=0;collapsible=1;marginBottom=0;whiteSpace=wrap;html=1;labelBackgroundColor=none;rounded=0;fillColor=#FAD9D5;strokeColor=#D0CEE2;fontColor=#1A1A1A;" parent="1" vertex="1">
          <mxGeometry x="1315.71" y="630.89" width="140" height="110" as="geometry" />
        </mxCell>
        <mxCell id="iBeRQEw0bHEhuUZA9688-429" value="&lt;div&gt;Company (pk)&lt;/div&gt;&lt;div&gt;Email&lt;/div&gt;&lt;div&gt;Value&lt;/div&gt;&lt;div&gt;Resources&lt;/div&gt;&lt;div style=&quot;&quot;&gt;Agreements&lt;/div&gt;" style="text;strokeColor=none;fillColor=none;align=left;verticalAlign=middle;spacingLeft=4;spacingRight=4;overflow=hidden;points=[[0,0.5],[1,0.5]];portConstraint=eastwest;rotatable=0;whiteSpace=wrap;html=1;labelBackgroundColor=none;rounded=0;fontColor=#1A1A1A;" parent="iBeRQEw0bHEhuUZA9688-428" vertex="1">
          <mxGeometry y="30" width="140" height="80" as="geometry" />
        </mxCell>
        <mxCell id="iBeRQEw0bHEhuUZA9688-430" value="" style="endArrow=none;html=1;rounded=0;fontColor=default;exitX=1.001;exitY=0.393;exitDx=0;exitDy=0;exitPerimeter=0;entryX=-0.001;entryY=0.273;entryDx=0;entryDy=0;entryPerimeter=0;labelBackgroundColor=none;strokeColor=#09555B;" parent="1" source="iBeRQEw0bHEhuUZA9688-417" target="iBeRQEw0bHEhuUZA9688-429" edge="1">
          <mxGeometry width="50" height="50" relative="1" as="geometry">
            <mxPoint x="1301" y="684.89" as="sourcePoint" />
            <mxPoint x="1351" y="634.89" as="targetPoint" />
          </mxGeometry>
        </mxCell>
        <mxCell id="iBeRQEw0bHEhuUZA9688-431" value="" style="whiteSpace=wrap;html=1;shape=mxgraph.basic.document;labelBackgroundColor=none;rounded=0;fillColor=#FAD9D5;strokeColor=#D0CEE2;fontColor=#1A1A1A;" parent="1" vertex="1">
          <mxGeometry x="1480" y="722.89" width="93" height="17" as="geometry" />
        </mxCell>
        <mxCell id="iBeRQEw0bHEhuUZA9688-442" value="" style="endArrow=none;dashed=1;html=1;rounded=0;entryX=0.026;entryY=0.466;entryDx=0;entryDy=0;entryPerimeter=0;exitX=1.01;exitY=0.257;exitDx=0;exitDy=0;exitPerimeter=0;labelBackgroundColor=none;fontColor=default;strokeColor=#09555B;" parent="1" target="iBeRQEw0bHEhuUZA9688-440" edge="1">
          <mxGeometry width="50" height="50" relative="1" as="geometry">
            <mxPoint x="1456.9299999999998" y="676.89" as="sourcePoint" />
            <mxPoint x="1664.5299999999997" y="614.97" as="targetPoint" />
          </mxGeometry>
        </mxCell>
        <mxCell id="iBeRQEw0bHEhuUZA9688-443" value="" style="endArrow=none;dashed=1;html=1;rounded=0;entryX=0;entryY=0.5;entryDx=0;entryDy=0;entryPerimeter=0;exitX=1.005;exitY=0.636;exitDx=0;exitDy=0;exitPerimeter=0;labelBackgroundColor=none;fontColor=default;strokeColor=#09555B;" parent="1" target="iBeRQEw0bHEhuUZA9688-445" edge="1">
          <mxGeometry width="50" height="50" relative="1" as="geometry">
            <mxPoint x="1456.9299999999998" y="706.89" as="sourcePoint" />
            <mxPoint x="1506.08" y="683.89" as="targetPoint" />
          </mxGeometry>
        </mxCell>
        <mxCell id="iBeRQEw0bHEhuUZA9688-445" value="&lt;div&gt;&lt;span style=&quot;text-align: left; background-color: initial;&quot;&gt;&lt;font style=&quot;font-size: 8px;&quot;&gt;-resources NOT_NULL&lt;/font&gt;&lt;/span&gt;&lt;br&gt;&lt;/div&gt;" style="whiteSpace=wrap;html=1;shape=mxgraph.basic.document;labelBackgroundColor=none;rounded=0;fillColor=#FAD9D5;strokeColor=#D0CEE2;fontColor=#1A1A1A;" parent="1" vertex="1">
          <mxGeometry x="1480.6" y="697.89" width="86.4" height="21" as="geometry" />
        </mxCell>
        <mxCell id="iBeRQEw0bHEhuUZA9688-446" value="&lt;div style=&quot;text-align: left;&quot;&gt;&lt;font style=&quot;font-size: 8px;&quot;&gt;-agreements NOT_NULL&lt;/font&gt;&lt;br&gt;&lt;/div&gt;" style="text;html=1;align=center;verticalAlign=middle;whiteSpace=wrap;rounded=0;labelBackgroundColor=none;fontColor=#1A1A1A;" parent="1" vertex="1">
          <mxGeometry x="1480.17" y="723.89" width="90.83" height="13.5" as="geometry" />
        </mxCell>
        <mxCell id="iBeRQEw0bHEhuUZA9688-447" value="" style="endArrow=none;dashed=1;html=1;rounded=0;entryX=-0.029;entryY=0.536;entryDx=0;entryDy=0;entryPerimeter=0;exitX=1;exitY=0.5;exitDx=0;exitDy=0;labelBackgroundColor=none;fontColor=default;strokeColor=#09555B;" parent="1" target="iBeRQEw0bHEhuUZA9688-435" edge="1">
          <mxGeometry width="50" height="50" relative="1" as="geometry">
            <mxPoint x="1455.9299999999998" y="695.89" as="sourcePoint" />
            <mxPoint x="1505.9299999999998" y="661.89" as="targetPoint" />
          </mxGeometry>
        </mxCell>
        <mxCell id="iBeRQEw0bHEhuUZA9688-448" value="" style="endArrow=none;dashed=1;html=1;rounded=0;entryX=-0.005;entryY=0.545;entryDx=0;entryDy=0;entryPerimeter=0;exitX=1.003;exitY=0.81;exitDx=0;exitDy=0;exitPerimeter=0;labelBackgroundColor=none;fontColor=default;strokeColor=#09555B;" parent="1" target="iBeRQEw0bHEhuUZA9688-431" edge="1">
          <mxGeometry width="50" height="50" relative="1" as="geometry">
            <mxPoint x="1455.9299999999998" y="720.89" as="sourcePoint" />
            <mxPoint x="1505.9299999999998" y="695.89" as="targetPoint" />
          </mxGeometry>
        </mxCell>
        <mxCell id="iBeRQEw0bHEhuUZA9688-450" value="" style="group;labelBackgroundColor=none;fontColor=#1A1A1A;rounded=0;" parent="1" vertex="1" connectable="0">
          <mxGeometry x="1481" y="655.89" width="79" height="16" as="geometry" />
        </mxCell>
        <mxCell id="iBeRQEw0bHEhuUZA9688-438" value="" style="whiteSpace=wrap;html=1;shape=mxgraph.basic.document;labelBackgroundColor=none;rounded=0;fillColor=#FAD9D5;strokeColor=#D0CEE2;fontColor=#1A1A1A;" parent="iBeRQEw0bHEhuUZA9688-450" vertex="1">
          <mxGeometry x="0.21661290322589916" width="78.78338709677419" height="16" as="geometry" />
        </mxCell>
        <mxCell id="iBeRQEw0bHEhuUZA9688-440" value="&lt;div style=&quot;text-align: left;&quot;&gt;&lt;font style=&quot;font-size: 8px;&quot;&gt;-email NOT_NULL&lt;/font&gt;&lt;br&gt;&lt;/div&gt;" style="text;html=1;align=center;verticalAlign=middle;whiteSpace=wrap;rounded=0;labelBackgroundColor=none;fontColor=#1A1A1A;" parent="iBeRQEw0bHEhuUZA9688-450" vertex="1">
          <mxGeometry x="1" y="1" width="72.4124193548387" height="12" as="geometry" />
        </mxCell>
        <mxCell id="iBeRQEw0bHEhuUZA9688-451" value="" style="group;labelBackgroundColor=none;fontColor=#1A1A1A;rounded=0;" parent="1" vertex="1" connectable="0">
          <mxGeometry x="1481" y="675.89" width="78" height="20" as="geometry" />
        </mxCell>
        <mxCell id="iBeRQEw0bHEhuUZA9688-435" value="" style="whiteSpace=wrap;html=1;shape=mxgraph.basic.document;labelBackgroundColor=none;rounded=0;fillColor=#FAD9D5;strokeColor=#D0CEE2;fontColor=#1A1A1A;" parent="iBeRQEw0bHEhuUZA9688-451" vertex="1">
          <mxGeometry x="0.3658418243570627" width="77.63415817564298" height="20" as="geometry" />
        </mxCell>
        <mxCell id="iBeRQEw0bHEhuUZA9688-436" value="&lt;div&gt;&lt;span style=&quot;background-color: initial;&quot;&gt;&lt;font style=&quot;font-size: 8px;&quot;&gt;-value NOT_NULL&lt;/font&gt;&lt;/span&gt;&lt;br&gt;&lt;/div&gt;" style="text;html=1;align=left;verticalAlign=middle;whiteSpace=wrap;rounded=0;labelBackgroundColor=none;fontColor=#1A1A1A;" parent="iBeRQEw0bHEhuUZA9688-451" vertex="1">
          <mxGeometry x="1" y="2.5" width="72.95390587093652" height="14" as="geometry" />
        </mxCell>
        <mxCell id="iBeRQEw0bHEhuUZA9688-212" value="Influencer" style="swimlane;fontStyle=0;childLayout=stackLayout;horizontal=1;startSize=30;horizontalStack=0;resizeParent=1;resizeParentMax=0;resizeLast=0;collapsible=1;marginBottom=0;whiteSpace=wrap;html=1;labelBackgroundColor=none;rounded=0;fillColor=#FAD9D5;strokeColor=#D0CEE2;fontColor=#1A1A1A;" parent="1" vertex="1">
          <mxGeometry x="332.0799999999999" y="449" width="140" height="80" as="geometry" />
        </mxCell>
        <mxCell id="iBeRQEw0bHEhuUZA9688-213" value="&lt;div&gt;NumFollowers&lt;/div&gt;&lt;div&gt;InstagramHandle&lt;/div&gt;" style="text;strokeColor=none;fillColor=none;align=left;verticalAlign=middle;spacingLeft=4;spacingRight=4;overflow=hidden;points=[[0,0.5],[1,0.5]];portConstraint=eastwest;rotatable=0;whiteSpace=wrap;html=1;labelBackgroundColor=none;rounded=0;fontColor=#1A1A1A;" parent="iBeRQEw0bHEhuUZA9688-212" vertex="1">
          <mxGeometry y="30" width="140" height="50" as="geometry" />
        </mxCell>
        <mxCell id="iBeRQEw0bHEhuUZA9688-216" value="Media" style="swimlane;fontStyle=0;childLayout=stackLayout;horizontal=1;startSize=30;horizontalStack=0;resizeParent=1;resizeParentMax=0;resizeLast=0;collapsible=1;marginBottom=0;whiteSpace=wrap;html=1;labelBackgroundColor=none;rounded=0;fillColor=#FAD9D5;strokeColor=#D0CEE2;fontColor=#1A1A1A;" parent="1" vertex="1">
          <mxGeometry x="516" y="452" width="160" height="80" as="geometry" />
        </mxCell>
        <mxCell id="iBeRQEw0bHEhuUZA9688-217" value="&lt;div&gt;Occupation&lt;/div&gt;&lt;div&gt;MeansofCommunication&lt;/div&gt;" style="text;strokeColor=none;fillColor=none;align=left;verticalAlign=middle;spacingLeft=4;spacingRight=4;overflow=hidden;points=[[0,0.5],[1,0.5]];portConstraint=eastwest;rotatable=0;whiteSpace=wrap;html=1;labelBackgroundColor=none;rounded=0;fontColor=#1A1A1A;" parent="iBeRQEw0bHEhuUZA9688-216" vertex="1">
          <mxGeometry y="30" width="160" height="50" as="geometry" />
        </mxCell>
        <mxCell id="iBeRQEw0bHEhuUZA9688-241" value="" style="endArrow=none;dashed=1;html=1;rounded=0;labelBackgroundColor=none;fontColor=default;entryX=0.382;entryY=1.035;entryDx=0;entryDy=0;entryPerimeter=0;strokeColor=#09555B;" parent="1" edge="1">
          <mxGeometry width="50" height="50" relative="1" as="geometry">
            <mxPoint x="533" y="545" as="sourcePoint" />
            <mxPoint x="544.1199999999999" y="533.75" as="targetPoint" />
          </mxGeometry>
        </mxCell>
        <mxCell id="iBeRQEw0bHEhuUZA9688-223" value="" style="triangle;whiteSpace=wrap;html=1;rotation=-90;labelBackgroundColor=none;rounded=0;fillColor=#FAD9D5;strokeColor=#D0CEE2;fontColor=#1A1A1A;" parent="1" vertex="1">
          <mxGeometry x="631.29" y="405.39" width="9.4" height="10" as="geometry" />
        </mxCell>
        <mxCell id="iBeRQEw0bHEhuUZA9688-254" value="" style="group;labelBackgroundColor=none;fontColor=#1A1A1A;rounded=0;" parent="1" vertex="1" connectable="0">
          <mxGeometry x="217" y="500" width="106" height="16.5" as="geometry" />
        </mxCell>
        <mxCell id="iBeRQEw0bHEhuUZA9688-243" value="" style="whiteSpace=wrap;html=1;shape=mxgraph.basic.document;labelBackgroundColor=none;rounded=0;fillColor=#FAD9D5;strokeColor=#D0CEE2;fontColor=#1A1A1A;" parent="iBeRQEw0bHEhuUZA9688-254" vertex="1">
          <mxGeometry y="2.46" width="101.92307692307692" height="14.04" as="geometry" />
        </mxCell>
        <mxCell id="iBeRQEw0bHEhuUZA9688-244" value="&lt;div style=&quot;text-align: left;&quot;&gt;&lt;font style=&quot;font-size: 8px;&quot;&gt;-NumFollowers NOT_NULL&lt;/font&gt;&lt;br&gt;&lt;/div&gt;" style="text;html=1;align=center;verticalAlign=middle;whiteSpace=wrap;rounded=0;labelBackgroundColor=none;fontColor=#1A1A1A;" parent="iBeRQEw0bHEhuUZA9688-254" vertex="1">
          <mxGeometry x="-6.794871794871794" y="1" width="114.83333333333331" height="14.04" as="geometry" />
        </mxCell>
        <mxCell id="iBeRQEw0bHEhuUZA9688-256" value="" style="group;labelBackgroundColor=none;fontColor=#1A1A1A;rounded=0;" parent="1" vertex="1" connectable="0">
          <mxGeometry x="220" y="477" width="115" height="14.75" as="geometry" />
        </mxCell>
        <mxCell id="iBeRQEw0bHEhuUZA9688-209" value="" style="whiteSpace=wrap;html=1;shape=mxgraph.basic.document;labelBackgroundColor=none;rounded=0;fillColor=#FAD9D5;strokeColor=#D0CEE2;fontColor=#1A1A1A;" parent="iBeRQEw0bHEhuUZA9688-256" vertex="1">
          <mxGeometry x="-9" y="1.92" width="111.52" height="12.83" as="geometry" />
        </mxCell>
        <mxCell id="iBeRQEw0bHEhuUZA9688-230" value="&lt;div&gt;&lt;span style=&quot;background-color: initial;&quot;&gt;&lt;font style=&quot;font-size: 8px;&quot;&gt;-InstagramHandle NOT_NULL&lt;/font&gt;&lt;/span&gt;&lt;br&gt;&lt;/div&gt;" style="text;html=1;align=left;verticalAlign=middle;whiteSpace=wrap;rounded=0;labelBackgroundColor=none;fontColor=#1A1A1A;" parent="iBeRQEw0bHEhuUZA9688-256" vertex="1">
          <mxGeometry x="-9" y="5.21" width="110" height="6.41" as="geometry" />
        </mxCell>
        <mxCell id="iBeRQEw0bHEhuUZA9688-242" value="" style="endArrow=none;dashed=1;html=1;rounded=0;labelBackgroundColor=none;fontColor=default;exitX=0.619;exitY=1.049;exitDx=0;exitDy=0;exitPerimeter=0;strokeColor=#09555B;" parent="1" edge="1">
          <mxGeometry width="50" height="50" relative="1" as="geometry">
            <mxPoint x="620.04" y="532.73" as="sourcePoint" />
            <mxPoint x="641" y="545" as="targetPoint" />
          </mxGeometry>
        </mxCell>
        <mxCell id="iBeRQEw0bHEhuUZA9688-482" value="" style="group;labelBackgroundColor=none;fontColor=#1A1A1A;rounded=0;" parent="1" vertex="1" connectable="0">
          <mxGeometry x="430" y="248.39" width="236.5" height="79" as="geometry" />
        </mxCell>
        <mxCell id="iBeRQEw0bHEhuUZA9688-483" value="" style="group;labelBackgroundColor=none;fontColor=#1A1A1A;rounded=0;" parent="iBeRQEw0bHEhuUZA9688-482" vertex="1" connectable="0">
          <mxGeometry x="123" y="96" width="229.99999999999997" height="60" as="geometry" />
        </mxCell>
        <mxCell id="iBeRQEw0bHEhuUZA9688-487" value="Spectator" style="swimlane;fontStyle=0;childLayout=stackLayout;horizontal=1;startSize=30;horizontalStack=0;resizeParent=1;resizeParentMax=0;resizeLast=0;collapsible=1;marginBottom=0;whiteSpace=wrap;html=1;labelBackgroundColor=none;fillColor=#FAD9D5;strokeColor=#D0CEE2;fontColor=#1A1A1A;rounded=0;" parent="iBeRQEw0bHEhuUZA9688-483" vertex="1">
          <mxGeometry x="39.17814440786363" width="127.6217955831761" height="60" as="geometry" />
        </mxCell>
        <mxCell id="iBeRQEw0bHEhuUZA9688-488" value="Seat" style="text;strokeColor=none;fillColor=none;align=left;verticalAlign=middle;spacingLeft=4;spacingRight=4;overflow=hidden;points=[[0,0.5],[1,0.5]];portConstraint=eastwest;rotatable=0;whiteSpace=wrap;html=1;labelBackgroundColor=none;fontColor=#1A1A1A;rounded=0;" parent="iBeRQEw0bHEhuUZA9688-487" vertex="1">
          <mxGeometry y="30" width="127.6217955831761" height="30" as="geometry" />
        </mxCell>
        <mxCell id="iBeRQEw0bHEhuUZA9688-489" value="" style="endArrow=none;html=1;rounded=0;fontColor=default;exitX=0.5;exitY=0;exitDx=0;exitDy=0;labelBackgroundColor=none;strokeColor=#09555B;" parent="iBeRQEw0bHEhuUZA9688-487" edge="1">
          <mxGeometry width="50" height="50" relative="1" as="geometry">
            <mxPoint x="63.81089779158822" as="sourcePoint" />
            <mxPoint x="63.82185559213633" y="-32.389999999999986" as="targetPoint" />
          </mxGeometry>
        </mxCell>
        <mxCell id="iBeRQEw0bHEhuUZA9688-490" value="" style="triangle;whiteSpace=wrap;html=1;direction=north;labelBackgroundColor=none;fillColor=#FAD9D5;strokeColor=#D0CEE2;fontColor=#1A1A1A;rounded=0;" parent="iBeRQEw0bHEhuUZA9688-482" vertex="1">
          <mxGeometry x="230.5" y="9" width="20" height="20" as="geometry" />
        </mxCell>
        <mxCell id="iBeRQEw0bHEhuUZA9688-620" value="" style="endArrow=none;html=1;rounded=0;fontColor=default;labelBackgroundColor=none;strokeColor=#09555B;" parent="iBeRQEw0bHEhuUZA9688-482" edge="1">
          <mxGeometry width="50" height="50" relative="1" as="geometry">
            <mxPoint x="-264" y="63.610000000000014" as="sourcePoint" />
            <mxPoint x="746" y="63.610000000000014" as="targetPoint" />
          </mxGeometry>
        </mxCell>
        <mxCell id="iBeRQEw0bHEhuUZA9688-239" value="" style="whiteSpace=wrap;html=1;shape=mxgraph.basic.document;labelBackgroundColor=none;rounded=0;fillColor=#FAD9D5;strokeColor=#D0CEE2;fontColor=#1A1A1A;" parent="1" vertex="1">
          <mxGeometry x="471" y="544.89" width="91.14" height="20" as="geometry" />
        </mxCell>
        <mxCell id="iBeRQEw0bHEhuUZA9688-240" value="&lt;div style=&quot;text-align: left;&quot;&gt;&lt;font style=&quot;font-size: 8px;&quot;&gt;-Occupation NOT_NULL&lt;/font&gt;&lt;br&gt;&lt;/div&gt;" style="text;html=1;align=center;verticalAlign=middle;whiteSpace=wrap;rounded=0;labelBackgroundColor=none;fontColor=#1A1A1A;" parent="1" vertex="1">
          <mxGeometry x="471" y="543.5" width="90" height="20" as="geometry" />
        </mxCell>
        <mxCell id="iBeRQEw0bHEhuUZA9688-493" value="" style="group;labelBackgroundColor=none;fontColor=#1A1A1A;rounded=0;" parent="1" vertex="1" connectable="0">
          <mxGeometry x="558" y="543" width="147" height="21.5" as="geometry" />
        </mxCell>
        <mxCell id="iBeRQEw0bHEhuUZA9688-491" value="" style="whiteSpace=wrap;html=1;shape=mxgraph.basic.document;labelBackgroundColor=none;rounded=0;fillColor=#FAD9D5;strokeColor=#D0CEE2;fontColor=#1A1A1A;" parent="iBeRQEw0bHEhuUZA9688-493" vertex="1">
          <mxGeometry x="7" y="3" width="137" height="18.5" as="geometry" />
        </mxCell>
        <mxCell id="iBeRQEw0bHEhuUZA9688-492" value="&lt;div&gt;&lt;font style=&quot;font-size: 8px;&quot;&gt;&lt;font style=&quot;background-color: initial;&quot;&gt;-MeansofCommunication &lt;/font&gt;&lt;font style=&quot;background-color: initial;&quot;&gt;NOT_NULL&lt;/font&gt;&lt;/font&gt;&lt;br&gt;&lt;/div&gt;" style="text;html=1;align=left;verticalAlign=middle;whiteSpace=wrap;rounded=0;labelBackgroundColor=none;fontColor=#1A1A1A;" parent="iBeRQEw0bHEhuUZA9688-493" vertex="1">
          <mxGeometry x="7" y="6" width="137" height="9.5" as="geometry" />
        </mxCell>
        <mxCell id="iBeRQEw0bHEhuUZA9688-486" value="" style="endArrow=none;dashed=1;html=1;dashPattern=1 3;strokeWidth=2;rounded=0;fontColor=default;entryX=0;entryY=0.5;entryDx=0;entryDy=0;exitX=1.002;exitY=0.629;exitDx=0;exitDy=0;exitPerimeter=0;labelBackgroundColor=none;strokeColor=#09555B;" parent="1" source="iBeRQEw0bHEhuUZA9688-484" target="iBeRQEw0bHEhuUZA9688-488" edge="1">
          <mxGeometry width="50" height="50" relative="1" as="geometry">
            <mxPoint x="637.1364393515933" y="381.89" as="sourcePoint" />
            <mxPoint x="656.0017272219118" y="381.89" as="targetPoint" />
            <Array as="points" />
          </mxGeometry>
        </mxCell>
        <mxCell id="iBeRQEw0bHEhuUZA9688-497" value="" style="group;labelBackgroundColor=none;fontColor=#1A1A1A;rounded=0;" parent="1" vertex="1" connectable="0">
          <mxGeometry x="509" y="357" width="68.81" height="15.25" as="geometry" />
        </mxCell>
        <mxCell id="iBeRQEw0bHEhuUZA9688-484" value="" style="whiteSpace=wrap;html=1;shape=mxgraph.basic.document;labelBackgroundColor=none;rounded=0;container=0;fillColor=#FAD9D5;strokeColor=#D0CEE2;fontColor=#1A1A1A;" parent="iBeRQEw0bHEhuUZA9688-497" vertex="1">
          <mxGeometry x="0.0002505342858545114" y="0.3112244897959184" width="68.80974946571428" height="14.938775510204081" as="geometry" />
        </mxCell>
        <mxCell id="iBeRQEw0bHEhuUZA9688-485" value="&lt;div style=&quot;text-align: left;&quot;&gt;&lt;font style=&quot;font-size: 8px;&quot;&gt;-seat NOT_NULL&lt;/font&gt;&lt;br&gt;&lt;/div&gt;" style="text;html=1;align=center;verticalAlign=middle;whiteSpace=wrap;rounded=0;labelBackgroundColor=none;container=0;fontColor=#1A1A1A;" parent="iBeRQEw0bHEhuUZA9688-497" vertex="1">
          <mxGeometry x="-1.211367128372883" y="1" width="69.04792631725434" height="9.33673469387755" as="geometry" />
        </mxCell>
        <mxCell id="iBeRQEw0bHEhuUZA9688-521" value="Ticket" style="swimlane;fontStyle=0;childLayout=stackLayout;horizontal=1;startSize=30;horizontalStack=0;resizeParent=1;resizeParentMax=0;resizeLast=0;collapsible=1;marginBottom=0;whiteSpace=wrap;html=1;labelBackgroundColor=none;rounded=0;fillColor=#FAD9D5;strokeColor=#D0CEE2;fontColor=#1A1A1A;" parent="1" vertex="1">
          <mxGeometry x="620.2900000000002" y="655" width="140" height="90" as="geometry" />
        </mxCell>
        <mxCell id="iBeRQEw0bHEhuUZA9688-522" value="&lt;div&gt;IdShow (pk)(fk)&lt;/div&gt;&lt;div&gt;IdPerson (pk)(fk)&lt;/div&gt;&lt;div&gt;&lt;span style=&quot;background-color: initial;&quot;&gt;Type&lt;/span&gt;&lt;/div&gt;&lt;div&gt;&lt;span style=&quot;background-color: initial;&quot;&gt;Status&amp;nbsp;&lt;/span&gt;&lt;br&gt;&lt;/div&gt;" style="text;strokeColor=none;fillColor=none;align=left;verticalAlign=middle;spacingLeft=4;spacingRight=4;overflow=hidden;points=[[0,0.5],[1,0.5]];portConstraint=eastwest;rotatable=0;whiteSpace=wrap;html=1;labelBackgroundColor=none;rounded=0;fontColor=#1A1A1A;" parent="iBeRQEw0bHEhuUZA9688-521" vertex="1">
          <mxGeometry y="30" width="140" height="60" as="geometry" />
        </mxCell>
        <mxCell id="iBeRQEw0bHEhuUZA9688-529" value="" style="endArrow=none;dashed=1;html=1;rounded=0;entryX=0.241;entryY=1.027;entryDx=0;entryDy=0;entryPerimeter=0;labelBackgroundColor=none;fontColor=default;exitX=0.487;exitY=-0.015;exitDx=0;exitDy=0;exitPerimeter=0;strokeColor=#09555B;" parent="1" source="iBeRQEw0bHEhuUZA9688-527" edge="1">
          <mxGeometry width="50" height="50" relative="1" as="geometry">
            <mxPoint x="602.2900000000002" y="760" as="sourcePoint" />
            <mxPoint x="675.2" y="745.0000000000001" as="targetPoint" />
          </mxGeometry>
        </mxCell>
        <mxCell id="iBeRQEw0bHEhuUZA9688-530" value="" style="endArrow=none;dashed=1;html=1;rounded=0;entryX=0.79;entryY=1.018;entryDx=0;entryDy=0;entryPerimeter=0;exitX=0.5;exitY=0;exitDx=0;exitDy=0;exitPerimeter=0;labelBackgroundColor=none;fontColor=default;strokeColor=#09555B;" parent="1" source="iBeRQEw0bHEhuUZA9688-520" edge="1">
          <mxGeometry width="50" height="50" relative="1" as="geometry">
            <mxPoint x="714.2900000000002" y="760" as="sourcePoint" />
            <mxPoint x="712.8900000000003" y="746.0799999999999" as="targetPoint" />
          </mxGeometry>
        </mxCell>
        <mxCell id="iBeRQEw0bHEhuUZA9688-531" value="" style="group;labelBackgroundColor=none;fontColor=#1A1A1A;rounded=0;" parent="1" vertex="1" connectable="0">
          <mxGeometry x="622.2" y="754" width="65" height="19.65" as="geometry" />
        </mxCell>
        <mxCell id="iBeRQEw0bHEhuUZA9688-527" value="" style="whiteSpace=wrap;html=1;shape=mxgraph.basic.document;labelBackgroundColor=none;rounded=0;fillColor=#FAD9D5;strokeColor=#D0CEE2;fontColor=#1A1A1A;" parent="iBeRQEw0bHEhuUZA9688-531" vertex="1">
          <mxGeometry x="-5" width="65.1" height="19.65" as="geometry" />
        </mxCell>
        <mxCell id="iBeRQEw0bHEhuUZA9688-528" value="&lt;div style=&quot;text-align: left;&quot;&gt;&lt;font style=&quot;font-size: 8px;&quot;&gt;-type NOT_NULL&lt;/font&gt;&lt;/div&gt;" style="text;html=1;align=center;verticalAlign=middle;whiteSpace=wrap;rounded=0;labelBackgroundColor=none;fontColor=#1A1A1A;" parent="iBeRQEw0bHEhuUZA9688-531" vertex="1">
          <mxGeometry x="-5" y="2.65" width="65" height="12.35" as="geometry" />
        </mxCell>
        <mxCell id="iBeRQEw0bHEhuUZA9688-532" value="" style="group;labelBackgroundColor=none;fontColor=#1A1A1A;rounded=0;" parent="1" vertex="1" connectable="0">
          <mxGeometry x="704.7" y="755" width="74" height="20" as="geometry" />
        </mxCell>
        <mxCell id="iBeRQEw0bHEhuUZA9688-520" value="" style="whiteSpace=wrap;html=1;shape=mxgraph.basic.document;labelBackgroundColor=none;rounded=0;fillColor=#FAD9D5;strokeColor=#D0CEE2;fontColor=#1A1A1A;" parent="iBeRQEw0bHEhuUZA9688-532" vertex="1">
          <mxGeometry width="74" height="20" as="geometry" />
        </mxCell>
        <mxCell id="iBeRQEw0bHEhuUZA9688-526" value="&lt;div&gt;&lt;font style=&quot;font-size: 8px;&quot;&gt;-status NOT_NULL&lt;/font&gt;&lt;/div&gt;" style="text;html=1;align=left;verticalAlign=middle;whiteSpace=wrap;rounded=0;labelBackgroundColor=none;fontColor=#1A1A1A;" parent="iBeRQEw0bHEhuUZA9688-532" vertex="1">
          <mxGeometry y="6" width="74" height="4" as="geometry" />
        </mxCell>
        <mxCell id="iBeRQEw0bHEhuUZA9688-534" value="" style="endArrow=none;dashed=1;html=1;rounded=0;fontColor=default;exitX=1.008;exitY=0.084;exitDx=0;exitDy=0;exitPerimeter=0;entryX=-0.021;entryY=0.54;entryDx=0;entryDy=0;entryPerimeter=0;labelBackgroundColor=none;strokeColor=#09555B;" parent="1" target="iBeRQEw0bHEhuUZA9688-406" edge="1">
          <mxGeometry width="50" height="50" relative="1" as="geometry">
            <mxPoint x="1003.2600000000002" y="775.4499999999998" as="sourcePoint" />
            <mxPoint x="1074" y="738" as="targetPoint" />
          </mxGeometry>
        </mxCell>
        <mxCell id="iBeRQEw0bHEhuUZA9688-536" value="" style="endArrow=none;dashed=1;html=1;rounded=0;fontColor=default;exitX=1.002;exitY=0.355;exitDx=0;exitDy=0;exitPerimeter=0;entryX=-0.023;entryY=0.585;entryDx=0;entryDy=0;entryPerimeter=0;labelBackgroundColor=none;strokeColor=#09555B;" parent="1" target="iBeRQEw0bHEhuUZA9688-400" edge="1">
          <mxGeometry width="50" height="50" relative="1" as="geometry">
            <mxPoint x="1002.4200000000001" y="799.8399999999999" as="sourcePoint" />
            <mxPoint x="1074" y="738" as="targetPoint" />
          </mxGeometry>
        </mxCell>
        <mxCell id="iBeRQEw0bHEhuUZA9688-542" value="Brand" style="swimlane;fontStyle=0;childLayout=stackLayout;horizontal=1;startSize=30;horizontalStack=0;resizeParent=1;resizeParentMax=0;resizeLast=0;collapsible=1;marginBottom=0;whiteSpace=wrap;html=1;labelBackgroundColor=none;rounded=0;fillColor=#FAD9D5;strokeColor=#D0CEE2;fontColor=#1A1A1A;" parent="1" vertex="1">
          <mxGeometry x="621" y="800.5" width="140" height="100" as="geometry" />
        </mxCell>
        <mxCell id="iBeRQEw0bHEhuUZA9688-543" value="BNome (pk)&lt;div&gt;Representative&amp;nbsp;&lt;/div&gt;&lt;div&gt;Country of origin&lt;/div&gt;&lt;div&gt;Logo&lt;/div&gt;&lt;div&gt;&lt;br&gt;&lt;/div&gt;" style="text;strokeColor=none;fillColor=none;align=left;verticalAlign=middle;spacingLeft=4;spacingRight=4;overflow=hidden;points=[[0,0.5],[1,0.5]];portConstraint=eastwest;rotatable=0;whiteSpace=wrap;html=1;labelBackgroundColor=none;rounded=0;fontColor=#1A1A1A;" parent="iBeRQEw0bHEhuUZA9688-542" vertex="1">
          <mxGeometry y="30" width="140" height="70" as="geometry" />
        </mxCell>
        <mxCell id="iBeRQEw0bHEhuUZA9688-544" value="Collection" style="swimlane;fontStyle=0;childLayout=stackLayout;horizontal=1;startSize=30;horizontalStack=0;resizeParent=1;resizeParentMax=0;resizeLast=0;collapsible=1;marginBottom=0;whiteSpace=wrap;html=1;labelBackgroundColor=none;rounded=0;fillColor=#FAD9D5;strokeColor=#D0CEE2;fontColor=#1A1A1A;" parent="1" vertex="1">
          <mxGeometry x="426" y="846" width="140" height="80" as="geometry" />
        </mxCell>
        <mxCell id="iBeRQEw0bHEhuUZA9688-545" value="CName (pk)&lt;div&gt;Brand (fk)&lt;br&gt;&lt;div&gt;Season&lt;/div&gt;&lt;/div&gt;" style="text;strokeColor=none;fillColor=none;align=left;verticalAlign=middle;spacingLeft=4;spacingRight=4;overflow=hidden;points=[[0,0.5],[1,0.5]];portConstraint=eastwest;rotatable=0;whiteSpace=wrap;html=1;labelBackgroundColor=none;rounded=0;fontColor=#1A1A1A;" parent="iBeRQEw0bHEhuUZA9688-544" vertex="1">
          <mxGeometry y="30" width="140" height="50" as="geometry" />
        </mxCell>
        <mxCell id="iBeRQEw0bHEhuUZA9688-546" value="Piece of Clothing" style="swimlane;fontStyle=0;childLayout=stackLayout;horizontal=1;startSize=30;horizontalStack=0;resizeParent=1;resizeParentMax=0;resizeLast=0;collapsible=1;marginBottom=0;whiteSpace=wrap;html=1;labelBackgroundColor=none;rounded=0;fillColor=#FAD9D5;strokeColor=#D0CEE2;fontColor=#1A1A1A;" parent="1" vertex="1">
          <mxGeometry x="231" y="846" width="140" height="120" as="geometry" />
        </mxCell>
        <mxCell id="iBeRQEw0bHEhuUZA9688-547" value="IdPiece (pk)&lt;div&gt;Collection (fk)&lt;/div&gt;&lt;div&gt;IdDesigner (fk)&lt;br&gt;&lt;div&gt;Material&amp;nbsp;&lt;/div&gt;&lt;div&gt;Color&lt;/div&gt;&lt;div&gt;Type&lt;/div&gt;&lt;/div&gt;" style="text;strokeColor=none;fillColor=none;align=left;verticalAlign=middle;spacingLeft=4;spacingRight=4;overflow=hidden;points=[[0,0.5],[1,0.5]];portConstraint=eastwest;rotatable=0;whiteSpace=wrap;html=1;labelBackgroundColor=none;rounded=0;fontColor=#1A1A1A;" parent="iBeRQEw0bHEhuUZA9688-546" vertex="1">
          <mxGeometry y="30" width="140" height="90" as="geometry" />
        </mxCell>
        <mxCell id="iBeRQEw0bHEhuUZA9688-579" value="" style="endArrow=none;dashed=1;html=1;rounded=0;exitX=0.492;exitY=1.008;exitDx=0;exitDy=0;exitPerimeter=0;labelBackgroundColor=none;fontColor=default;strokeColor=#09555B;entryX=0.388;entryY=-0.072;entryDx=0;entryDy=0;entryPerimeter=0;" parent="1" edge="1" target="iBeRQEw0bHEhuUZA9688-569" source="iBeRQEw0bHEhuUZA9688-543">
          <mxGeometry width="50" height="50" relative="1" as="geometry">
            <mxPoint x="687.2000000000004" y="901.255" as="sourcePoint" />
            <mxPoint x="720.08" y="910.75" as="targetPoint" />
          </mxGeometry>
        </mxCell>
        <mxCell id="iBeRQEw0bHEhuUZA9688-586" value="" style="group;labelBackgroundColor=none;fontColor=#1A1A1A;rounded=0;" parent="1" vertex="1" connectable="0">
          <mxGeometry x="746" y="488" width="124" height="32" as="geometry" />
        </mxCell>
        <mxCell id="iBeRQEw0bHEhuUZA9688-372" value="" style="whiteSpace=wrap;html=1;shape=mxgraph.basic.document;labelBackgroundColor=none;rounded=0;fillColor=#FAD9D5;strokeColor=#D0CEE2;fontColor=#1A1A1A;" parent="iBeRQEw0bHEhuUZA9688-586" vertex="1">
          <mxGeometry y="2" width="118.09523809523807" height="30" as="geometry" />
        </mxCell>
        <mxCell id="iBeRQEw0bHEhuUZA9688-373" value="&lt;div&gt;&lt;font style=&quot;font-size: 8px;&quot;&gt;&lt;span style=&quot;background-color: initial;&quot;&gt;-height NOT_NULL&amp;nbsp;&lt;/span&gt;&lt;/font&gt;&lt;/div&gt;&lt;div&gt;&lt;font style=&quot;font-size: 8px;&quot;&gt;&lt;span style=&quot;background-color: initial;&quot;&gt;CHECK&amp;nbsp;&lt;/span&gt;&lt;/font&gt;&lt;span style=&quot;background-color: initial; font-size: 6px;&quot;&gt;(height&amp;gt;100 AND height&amp;lt;250)&lt;/span&gt;&lt;/div&gt;" style="text;html=1;align=left;verticalAlign=middle;whiteSpace=wrap;rounded=0;labelBackgroundColor=none;fontColor=#1A1A1A;" parent="iBeRQEw0bHEhuUZA9688-586" vertex="1">
          <mxGeometry x="-0.18095238095238075" y="1" width="122.8190476190476" height="30" as="geometry" />
        </mxCell>
        <mxCell id="iBeRQEw0bHEhuUZA9688-588" value="" style="endArrow=none;html=1;rounded=0;fontColor=default;exitX=1;exitY=0.5;exitDx=0;exitDy=0;entryX=-0.007;entryY=0.066;entryDx=0;entryDy=0;entryPerimeter=0;labelBackgroundColor=none;strokeColor=#09555B;" parent="1" source="iBeRQEw0bHEhuUZA9688-522" target="iBeRQEw0bHEhuUZA9688-384" edge="1">
          <mxGeometry width="50" height="50" relative="1" as="geometry">
            <mxPoint x="811.06" y="836.5" as="sourcePoint" />
            <mxPoint x="861.06" y="786.5" as="targetPoint" />
            <Array as="points">
              <mxPoint x="812" y="715" />
              <mxPoint x="812" y="780" />
            </Array>
          </mxGeometry>
        </mxCell>
        <mxCell id="iBeRQEw0bHEhuUZA9688-589" value="" style="endArrow=none;html=1;rounded=0;fontColor=default;entryX=0.002;entryY=0.805;entryDx=0;entryDy=0;entryPerimeter=0;labelBackgroundColor=none;strokeColor=#09555B;" parent="1" target="iBeRQEw0bHEhuUZA9688-384" edge="1">
          <mxGeometry width="50" height="50" relative="1" as="geometry">
            <mxPoint x="761.29" y="848" as="sourcePoint" />
            <mxPoint x="811.29" y="798" as="targetPoint" />
          </mxGeometry>
        </mxCell>
        <mxCell id="iBeRQEw0bHEhuUZA9688-590" value="" style="endArrow=none;html=1;rounded=0;fontColor=default;entryX=0;entryY=0.843;entryDx=0;entryDy=0;entryPerimeter=0;exitX=1.002;exitY=0.277;exitDx=0;exitDy=0;exitPerimeter=0;labelBackgroundColor=none;strokeColor=#09555B;" parent="1" source="iBeRQEw0bHEhuUZA9688-545" target="iBeRQEw0bHEhuUZA9688-543" edge="1">
          <mxGeometry width="50" height="50" relative="1" as="geometry">
            <mxPoint x="566.8599999999999" y="889.2" as="sourcePoint" />
            <mxPoint x="620.5999999999999" y="888.59" as="targetPoint" />
          </mxGeometry>
        </mxCell>
        <mxCell id="iBeRQEw0bHEhuUZA9688-591" value="" style="endArrow=none;html=1;rounded=0;fontColor=default;exitX=0.002;exitY=0.01;exitDx=0;exitDy=0;exitPerimeter=0;labelBackgroundColor=none;strokeColor=#09555B;" parent="1" source="iBeRQEw0bHEhuUZA9688-543" edge="1">
          <mxGeometry width="50" height="50" relative="1" as="geometry">
            <mxPoint x="679.46" y="750.52" as="sourcePoint" />
            <mxPoint x="412" y="529" as="targetPoint" />
            <Array as="points">
              <mxPoint x="412" y="831" />
            </Array>
          </mxGeometry>
        </mxCell>
        <mxCell id="iBeRQEw0bHEhuUZA9688-592" value="" style="group;labelBackgroundColor=none;fontColor=#1A1A1A;rounded=0;" parent="1" vertex="1" connectable="0">
          <mxGeometry x="645" y="916" width="116" height="25" as="geometry" />
        </mxCell>
        <mxCell id="iBeRQEw0bHEhuUZA9688-539" value="" style="whiteSpace=wrap;html=1;shape=mxgraph.basic.document;labelBackgroundColor=none;rounded=0;fillColor=#FAD9D5;strokeColor=#D0CEE2;fontColor=#1A1A1A;" parent="iBeRQEw0bHEhuUZA9688-592" vertex="1">
          <mxGeometry width="104.39999999999999" height="25" as="geometry" />
        </mxCell>
        <mxCell id="iBeRQEw0bHEhuUZA9688-569" value="&lt;font style=&quot;font-size: 8px;&quot;&gt;-representative NOT_NULL&lt;/font&gt;" style="text;html=1;align=left;verticalAlign=middle;whiteSpace=wrap;rounded=0;labelBackgroundColor=none;fontColor=#1A1A1A;" parent="iBeRQEw0bHEhuUZA9688-592" vertex="1">
          <mxGeometry y="1" width="115.99999999999999" height="23.5" as="geometry" />
        </mxCell>
        <mxCell id="iBeRQEw0bHEhuUZA9688-593" value="" style="group;labelBackgroundColor=none;fontColor=#1A1A1A;rounded=0;" parent="1" vertex="1" connectable="0">
          <mxGeometry x="428" y="934" width="72" height="20" as="geometry" />
        </mxCell>
        <mxCell id="iBeRQEw0bHEhuUZA9688-540" value="" style="whiteSpace=wrap;html=1;shape=mxgraph.basic.document;labelBackgroundColor=none;rounded=0;fillColor=#FAD9D5;strokeColor=#D0CEE2;fontColor=#1A1A1A;" parent="iBeRQEw0bHEhuUZA9688-593" vertex="1">
          <mxGeometry x="-4.173913043478261" y="1" width="72" height="19" as="geometry" />
        </mxCell>
        <mxCell id="iBeRQEw0bHEhuUZA9688-568" value="&lt;font style=&quot;font-size: 8px;&quot;&gt;-brand NOT_NULL&lt;/font&gt;" style="text;html=1;align=left;verticalAlign=middle;whiteSpace=wrap;rounded=0;labelBackgroundColor=none;fontColor=#1A1A1A;" parent="iBeRQEw0bHEhuUZA9688-593" vertex="1">
          <mxGeometry x="-5.217391304347826" y="1" width="74.08695652173913" height="17" as="geometry" />
        </mxCell>
        <mxCell id="iBeRQEw0bHEhuUZA9688-594" value="" style="group;labelBackgroundColor=none;fontColor=#1A1A1A;rounded=0;" parent="1" vertex="1" connectable="0">
          <mxGeometry x="516.6400000000001" y="933" width="70" height="21" as="geometry" />
        </mxCell>
        <mxCell id="iBeRQEw0bHEhuUZA9688-576" value="" style="whiteSpace=wrap;html=1;shape=mxgraph.basic.document;labelBackgroundColor=none;rounded=0;fillColor=#FAD9D5;strokeColor=#D0CEE2;fontColor=#1A1A1A;" parent="iBeRQEw0bHEhuUZA9688-594" vertex="1">
          <mxGeometry x="-9" y="1" width="75" height="20" as="geometry" />
        </mxCell>
        <mxCell id="iBeRQEw0bHEhuUZA9688-577" value="&lt;div&gt;&lt;font style=&quot;font-size: 8px;&quot;&gt;-season NOT_NULL&lt;/font&gt;&lt;/div&gt;" style="text;html=1;align=left;verticalAlign=middle;whiteSpace=wrap;rounded=0;labelBackgroundColor=none;fontColor=#1A1A1A;" parent="iBeRQEw0bHEhuUZA9688-594" vertex="1">
          <mxGeometry x="-10" width="75" height="17" as="geometry" />
        </mxCell>
        <mxCell id="iBeRQEw0bHEhuUZA9688-595" value="" style="endArrow=none;dashed=1;html=1;rounded=0;fontColor=default;entryX=0.384;entryY=1;entryDx=0;entryDy=0;entryPerimeter=0;exitX=0.5;exitY=0;exitDx=0;exitDy=0;labelBackgroundColor=none;strokeColor=#09555B;" parent="1" source="iBeRQEw0bHEhuUZA9688-568" target="iBeRQEw0bHEhuUZA9688-545" edge="1">
          <mxGeometry width="50" height="50" relative="1" as="geometry">
            <mxPoint x="462" y="960" as="sourcePoint" />
            <mxPoint x="562" y="960" as="targetPoint" />
          </mxGeometry>
        </mxCell>
        <mxCell id="iBeRQEw0bHEhuUZA9688-597" value="" style="endArrow=none;dashed=1;html=1;rounded=0;fontColor=default;entryX=0.704;entryY=0.998;entryDx=0;entryDy=0;entryPerimeter=0;exitX=0.5;exitY=0;exitDx=0;exitDy=0;labelBackgroundColor=none;strokeColor=#09555B;" parent="1" source="iBeRQEw0bHEhuUZA9688-577" target="iBeRQEw0bHEhuUZA9688-545" edge="1">
          <mxGeometry width="50" height="50" relative="1" as="geometry">
            <mxPoint x="462" y="960" as="sourcePoint" />
            <mxPoint x="512" y="910" as="targetPoint" />
          </mxGeometry>
        </mxCell>
        <mxCell id="iBeRQEw0bHEhuUZA9688-598" value="" style="endArrow=none;html=1;rounded=0;fontColor=default;entryX=0;entryY=0.843;entryDx=0;entryDy=0;entryPerimeter=0;exitX=1.002;exitY=0.277;exitDx=0;exitDy=0;exitPerimeter=0;labelBackgroundColor=none;strokeColor=#09555B;" parent="1" edge="1">
          <mxGeometry width="50" height="50" relative="1" as="geometry">
            <mxPoint x="371" y="889.5" as="sourcePoint" />
            <mxPoint x="426" y="889.5" as="targetPoint" />
          </mxGeometry>
        </mxCell>
        <mxCell id="iBeRQEw0bHEhuUZA9688-608" value="" style="group;labelBackgroundColor=none;fontColor=#1A1A1A;rounded=0;" parent="1" vertex="1" connectable="0">
          <mxGeometry x="214" y="974" width="85" height="20" as="geometry" />
        </mxCell>
        <mxCell id="iBeRQEw0bHEhuUZA9688-609" value="" style="whiteSpace=wrap;html=1;shape=mxgraph.basic.document;labelBackgroundColor=none;rounded=0;fillColor=#FAD9D5;strokeColor=#D0CEE2;fontColor=#1A1A1A;" parent="iBeRQEw0bHEhuUZA9688-608" vertex="1">
          <mxGeometry y="1" width="85" height="19" as="geometry" />
        </mxCell>
        <mxCell id="iBeRQEw0bHEhuUZA9688-610" value="&lt;font style=&quot;font-size: 8px;&quot;&gt;-collection NOT_NULL&lt;/font&gt;" style="text;html=1;align=left;verticalAlign=middle;whiteSpace=wrap;rounded=0;labelBackgroundColor=none;fontColor=#1A1A1A;" parent="iBeRQEw0bHEhuUZA9688-608" vertex="1">
          <mxGeometry x="-0.48" width="85.48" height="17" as="geometry" />
        </mxCell>
        <mxCell id="iBeRQEw0bHEhuUZA9688-611" value="" style="group;labelBackgroundColor=none;fontColor=#1A1A1A;rounded=0;" parent="1" vertex="1" connectable="0">
          <mxGeometry x="306" y="973" width="89" height="21" as="geometry" />
        </mxCell>
        <mxCell id="iBeRQEw0bHEhuUZA9688-612" value="" style="whiteSpace=wrap;html=1;shape=mxgraph.basic.document;labelBackgroundColor=none;rounded=0;fillColor=#FAD9D5;strokeColor=#D0CEE2;fontColor=#1A1A1A;" parent="iBeRQEw0bHEhuUZA9688-611" vertex="1">
          <mxGeometry y="1" width="87.67164179104476" height="20" as="geometry" />
        </mxCell>
        <mxCell id="iBeRQEw0bHEhuUZA9688-613" value="&lt;div&gt;&lt;font style=&quot;font-size: 8px;&quot;&gt;-IdDesigner NOT_NULL&lt;/font&gt;&lt;/div&gt;" style="text;html=1;align=left;verticalAlign=middle;whiteSpace=wrap;rounded=0;labelBackgroundColor=none;fontColor=#1A1A1A;" parent="iBeRQEw0bHEhuUZA9688-611" vertex="1">
          <mxGeometry x="-0.8009280490168724" y="1" width="110.25373134328358" height="17" as="geometry" />
        </mxCell>
        <mxCell id="iBeRQEw0bHEhuUZA9688-614" value="" style="endArrow=none;dashed=1;html=1;rounded=0;fontColor=default;entryX=0.384;entryY=1;entryDx=0;entryDy=0;entryPerimeter=0;exitX=0.5;exitY=0;exitDx=0;exitDy=0;labelBackgroundColor=none;strokeColor=#09555B;" parent="1" source="iBeRQEw0bHEhuUZA9688-610" edge="1">
          <mxGeometry width="50" height="50" relative="1" as="geometry">
            <mxPoint x="256" y="1000" as="sourcePoint" />
            <mxPoint x="274" y="966" as="targetPoint" />
          </mxGeometry>
        </mxCell>
        <mxCell id="iBeRQEw0bHEhuUZA9688-615" value="" style="endArrow=none;dashed=1;html=1;rounded=0;fontColor=default;entryX=0.704;entryY=0.998;entryDx=0;entryDy=0;entryPerimeter=0;exitX=0.5;exitY=0;exitDx=0;exitDy=0;labelBackgroundColor=none;strokeColor=#09555B;" parent="1" source="iBeRQEw0bHEhuUZA9688-613" edge="1">
          <mxGeometry width="50" height="50" relative="1" as="geometry">
            <mxPoint x="256" y="1000" as="sourcePoint" />
            <mxPoint x="319" y="966" as="targetPoint" />
          </mxGeometry>
        </mxCell>
        <mxCell id="iBeRQEw0bHEhuUZA9688-617" value="" style="endArrow=none;dashed=1;html=1;rounded=0;fontColor=default;exitX=1;exitY=0.5;exitDx=0;exitDy=0;exitPerimeter=0;entryX=-0.001;entryY=0.246;entryDx=0;entryDy=0;entryPerimeter=0;labelBackgroundColor=none;strokeColor=#09555B;" parent="1" source="iBeRQEw0bHEhuUZA9688-209" target="iBeRQEw0bHEhuUZA9688-213" edge="1">
          <mxGeometry width="50" height="50" relative="1" as="geometry">
            <mxPoint x="241" y="531" as="sourcePoint" />
            <mxPoint x="331" y="491" as="targetPoint" />
          </mxGeometry>
        </mxCell>
        <mxCell id="iBeRQEw0bHEhuUZA9688-618" value="" style="endArrow=none;dashed=1;html=1;rounded=0;fontColor=default;entryX=-0.006;entryY=0.454;entryDx=0;entryDy=0;entryPerimeter=0;exitX=0.989;exitY=0.621;exitDx=0;exitDy=0;exitPerimeter=0;labelBackgroundColor=none;strokeColor=#09555B;" parent="1" source="iBeRQEw0bHEhuUZA9688-243" target="iBeRQEw0bHEhuUZA9688-213" edge="1">
          <mxGeometry width="50" height="50" relative="1" as="geometry">
            <mxPoint x="241" y="531" as="sourcePoint" />
            <mxPoint x="291" y="481" as="targetPoint" />
          </mxGeometry>
        </mxCell>
        <mxCell id="iBeRQEw0bHEhuUZA9688-619" value="" style="endArrow=none;html=1;rounded=0;fontColor=default;entryX=0;entryY=0.5;entryDx=0;entryDy=0;labelBackgroundColor=none;strokeColor=#09555B;" parent="1" target="iBeRQEw0bHEhuUZA9688-490" edge="1">
          <mxGeometry width="50" height="50" relative="1" as="geometry">
            <mxPoint x="670" y="312" as="sourcePoint" />
            <mxPoint x="738.06" y="372" as="targetPoint" />
          </mxGeometry>
        </mxCell>
        <mxCell id="iBeRQEw0bHEhuUZA9688-621" value="" style="endArrow=none;html=1;rounded=0;fontColor=default;exitX=0.5;exitY=-0.004;exitDx=0;exitDy=0;exitPerimeter=0;labelBackgroundColor=none;strokeColor=#09555B;" parent="1" source="iBeRQEw0bHEhuUZA9688-216" edge="1">
          <mxGeometry width="50" height="50" relative="1" as="geometry">
            <mxPoint x="595.99" y="451" as="sourcePoint" />
            <mxPoint x="596" y="435" as="targetPoint" />
          </mxGeometry>
        </mxCell>
        <mxCell id="iBeRQEw0bHEhuUZA9688-625" value="" style="endArrow=none;html=1;rounded=0;fontColor=default;entryX=-0.064;entryY=0.489;entryDx=0;entryDy=0;entryPerimeter=0;exitX=0.5;exitY=0;exitDx=0;exitDy=0;labelBackgroundColor=none;strokeColor=#09555B;" parent="1" source="iBeRQEw0bHEhuUZA9688-212" edge="1">
          <mxGeometry width="50" height="50" relative="1" as="geometry">
            <mxPoint x="590.69" y="474.89" as="sourcePoint" />
            <mxPoint x="635.8800000000001" y="415.6916" as="targetPoint" />
            <Array as="points">
              <mxPoint x="402" y="435" />
              <mxPoint x="636" y="435" />
            </Array>
          </mxGeometry>
        </mxCell>
        <mxCell id="iBeRQEw0bHEhuUZA9688-626" value="" style="endArrow=none;html=1;rounded=0;fontColor=default;exitX=0.5;exitY=0;exitDx=0;exitDy=0;labelBackgroundColor=none;strokeColor=#09555B;" parent="1" source="iBeRQEw0bHEhuUZA9688-348" edge="1">
          <mxGeometry width="50" height="50" relative="1" as="geometry">
            <mxPoint x="166" y="492" as="sourcePoint" />
            <mxPoint x="166" y="312" as="targetPoint" />
          </mxGeometry>
        </mxCell>
        <mxCell id="iBeRQEw0bHEhuUZA9688-632" value="" style="endArrow=none;dashed=1;html=1;rounded=0;fontColor=default;exitX=1;exitY=0.5;exitDx=0;exitDy=0;exitPerimeter=0;entryX=-0.013;entryY=0.365;entryDx=0;entryDy=0;entryPerimeter=0;labelBackgroundColor=none;strokeColor=#09555B;" parent="1" source="iBeRQEw0bHEhuUZA9688-338" edge="1">
          <mxGeometry width="50" height="50" relative="1" as="geometry">
            <mxPoint x="550" y="205" as="sourcePoint" />
            <mxPoint x="597.2269999999996" y="199.94999999999993" as="targetPoint" />
          </mxGeometry>
        </mxCell>
        <mxCell id="2Lq3ukhQ7VVJQRNL60BJ-8" value="" style="endArrow=none;dashed=1;html=1;rounded=0;strokeColor=#09555B;fontColor=#1A1A1A;entryX=1;entryY=0.5;entryDx=0;entryDy=0;entryPerimeter=0;exitX=-0.004;exitY=0.662;exitDx=0;exitDy=0;exitPerimeter=0;" edge="1" parent="1" source="2Lq3ukhQ7VVJQRNL60BJ-2" target="2Lq3ukhQ7VVJQRNL60BJ-5">
          <mxGeometry width="50" height="50" relative="1" as="geometry">
            <mxPoint x="527" y="272" as="sourcePoint" />
            <mxPoint x="577" y="222" as="targetPoint" />
          </mxGeometry>
        </mxCell>
        <mxCell id="2Lq3ukhQ7VVJQRNL60BJ-9" value="" style="group" vertex="1" connectable="0" parent="1">
          <mxGeometry x="487" y="201" width="71.29" height="20" as="geometry" />
        </mxCell>
        <mxCell id="2Lq3ukhQ7VVJQRNL60BJ-5" value="" style="whiteSpace=wrap;html=1;shape=mxgraph.basic.document;labelBackgroundColor=none;rounded=0;fillColor=#FAD9D5;strokeColor=#D0CEE2;fontColor=#1A1A1A;" vertex="1" parent="2Lq3ukhQ7VVJQRNL60BJ-9">
          <mxGeometry width="71.29000000000005" height="20" as="geometry" />
        </mxCell>
        <mxCell id="2Lq3ukhQ7VVJQRNL60BJ-6" value="&lt;div style=&quot;text-align: left;&quot;&gt;&lt;font style=&quot;font-size: 8px;&quot;&gt;-email NOT_NULL&lt;/font&gt;&lt;/div&gt;" style="text;html=1;align=center;verticalAlign=middle;whiteSpace=wrap;rounded=0;labelBackgroundColor=none;fontColor=#1A1A1A;" vertex="1" parent="2Lq3ukhQ7VVJQRNL60BJ-9">
          <mxGeometry y="4" width="69" height="12" as="geometry" />
        </mxCell>
        <mxCell id="2Lq3ukhQ7VVJQRNL60BJ-10" value="" style="group" vertex="1" connectable="0" parent="1">
          <mxGeometry x="490" y="173" width="73.14" height="20" as="geometry" />
        </mxCell>
        <mxCell id="iBeRQEw0bHEhuUZA9688-338" value="" style="whiteSpace=wrap;html=1;shape=mxgraph.basic.document;labelBackgroundColor=none;rounded=0;fillColor=#FAD9D5;strokeColor=#D0CEE2;fontColor=#1A1A1A;" parent="2Lq3ukhQ7VVJQRNL60BJ-10" vertex="1">
          <mxGeometry x="-3" width="71.07" height="20" as="geometry" />
        </mxCell>
        <mxCell id="iBeRQEw0bHEhuUZA9688-339" value="&lt;div style=&quot;text-align: left;&quot;&gt;&lt;font style=&quot;font-size: 8px;&quot;&gt;-name NOT_NULL&lt;/font&gt;&lt;/div&gt;" style="text;html=1;align=center;verticalAlign=middle;whiteSpace=wrap;rounded=0;labelBackgroundColor=none;fontColor=#1A1A1A;" parent="2Lq3ukhQ7VVJQRNL60BJ-10" vertex="1">
          <mxGeometry x="-6.220135016143235" y="4" width="76.36013501614325" height="12" as="geometry" />
        </mxCell>
        <mxCell id="2Lq3ukhQ7VVJQRNL60BJ-12" value="" style="triangle;whiteSpace=wrap;html=1;strokeColor=#D0CEE2;fontColor=#1A1A1A;fillColor=#FAD9D5;direction=north;" vertex="1" parent="1">
          <mxGeometry x="1166" y="391" width="10" height="8" as="geometry" />
        </mxCell>
        <mxCell id="2Lq3ukhQ7VVJQRNL60BJ-15" value="" style="endArrow=none;html=1;rounded=0;fontColor=default;labelBackgroundColor=none;strokeColor=#09555B;exitX=0.738;exitY=0.009;exitDx=0;exitDy=0;exitPerimeter=0;" edge="1" parent="1">
          <mxGeometry width="50" height="50" relative="1" as="geometry">
            <mxPoint x="1170.9" y="407.39" as="sourcePoint" />
            <mxPoint x="1170.9" y="399.39" as="targetPoint" />
          </mxGeometry>
        </mxCell>
        <mxCell id="2Lq3ukhQ7VVJQRNL60BJ-16" value="" style="endArrow=none;html=1;rounded=0;strokeColor=#09555B;fontColor=#1A1A1A;exitX=0.67;exitY=-0.008;exitDx=0;exitDy=0;exitPerimeter=0;entryX=0.5;entryY=0;entryDx=0;entryDy=0;" edge="1" parent="1">
          <mxGeometry width="50" height="50" relative="1" as="geometry">
            <mxPoint x="1121.79" y="414.49" as="sourcePoint" />
            <mxPoint x="1226.0750000000003" y="414.89" as="targetPoint" />
            <Array as="points">
              <mxPoint x="1122" y="407" />
              <mxPoint x="1226" y="407" />
            </Array>
          </mxGeometry>
        </mxCell>
        <mxCell id="2Lq3ukhQ7VVJQRNL60BJ-25" value="" style="endArrow=none;dashed=1;html=1;rounded=0;strokeColor=#09555B;fontColor=#1A1A1A;entryX=1.005;entryY=0.548;entryDx=0;entryDy=0;entryPerimeter=0;exitX=-0.002;exitY=0.276;exitDx=0;exitDy=0;exitPerimeter=0;" edge="1" parent="1" source="iBeRQEw0bHEhuUZA9688-391" target="iBeRQEw0bHEhuUZA9688-397">
          <mxGeometry width="50" height="50" relative="1" as="geometry">
            <mxPoint x="836" y="694" as="sourcePoint" />
            <mxPoint x="886" y="644" as="targetPoint" />
          </mxGeometry>
        </mxCell>
        <mxCell id="2Lq3ukhQ7VVJQRNL60BJ-31" value="1" style="text;html=1;align=center;verticalAlign=middle;whiteSpace=wrap;rounded=0;fontColor=#1A1A1A;" vertex="1" parent="1">
          <mxGeometry x="1103.85" y="447.89" width="22" height="12" as="geometry" />
        </mxCell>
        <mxCell id="2Lq3ukhQ7VVJQRNL60BJ-33" value="&lt;font style=&quot;font-size: 10px;&quot;&gt;*&lt;/font&gt;" style="text;html=1;align=center;verticalAlign=middle;resizable=0;points=[];autosize=1;strokeColor=none;fillColor=none;labelBackgroundColor=none;fontColor=#1A1A1A;rounded=0;" vertex="1" parent="1">
          <mxGeometry x="1213" y="463" width="22" height="26" as="geometry" />
        </mxCell>
        <mxCell id="2Lq3ukhQ7VVJQRNL60BJ-34" value="&lt;font style=&quot;font-size: 10px;&quot;&gt;1&lt;/font&gt;" style="text;html=1;align=center;verticalAlign=middle;resizable=0;points=[];autosize=1;strokeColor=none;fillColor=none;labelBackgroundColor=none;fontColor=#1A1A1A;rounded=0;" vertex="1" parent="1">
          <mxGeometry x="1212" y="611" width="24" height="26" as="geometry" />
        </mxCell>
        <mxCell id="2Lq3ukhQ7VVJQRNL60BJ-35" value="&lt;font style=&quot;font-size: 10px;&quot;&gt;*&lt;/font&gt;" style="text;html=1;align=center;verticalAlign=middle;resizable=0;points=[];autosize=1;strokeColor=none;fillColor=none;labelBackgroundColor=none;fontColor=#1A1A1A;rounded=0;" vertex="1" parent="1">
          <mxGeometry x="1297" y="662.14" width="22" height="26" as="geometry" />
        </mxCell>
        <mxCell id="2Lq3ukhQ7VVJQRNL60BJ-37" value="&lt;font style=&quot;font-size: 10px;&quot;&gt;1&lt;/font&gt;" style="text;html=1;align=center;verticalAlign=middle;resizable=0;points=[];autosize=1;strokeColor=none;fillColor=none;labelBackgroundColor=none;fontColor=#1A1A1A;rounded=0;" vertex="1" parent="1">
          <mxGeometry x="1267" y="661.14" width="24" height="26" as="geometry" />
        </mxCell>
        <mxCell id="2Lq3ukhQ7VVJQRNL60BJ-38" value="&lt;font style=&quot;font-size: 10px;&quot;&gt;*&lt;/font&gt;" style="text;html=1;align=center;verticalAlign=middle;resizable=0;points=[];autosize=1;strokeColor=none;fillColor=none;labelBackgroundColor=none;fontColor=#1A1A1A;rounded=0;" vertex="1" parent="1">
          <mxGeometry x="997" y="800.5" width="22" height="26" as="geometry" />
        </mxCell>
        <mxCell id="2Lq3ukhQ7VVJQRNL60BJ-39" value="&lt;font style=&quot;font-size: 10px;&quot;&gt;1&lt;/font&gt;" style="text;html=1;align=center;verticalAlign=middle;resizable=0;points=[];autosize=1;strokeColor=none;fillColor=none;labelBackgroundColor=none;fontColor=#1A1A1A;rounded=0;" vertex="1" parent="1">
          <mxGeometry x="1198" y="708.5" width="24" height="26" as="geometry" />
        </mxCell>
        <mxCell id="2Lq3ukhQ7VVJQRNL60BJ-40" value="&lt;font style=&quot;font-size: 10px;&quot;&gt;1&lt;/font&gt;" style="text;html=1;align=center;verticalAlign=middle;resizable=0;points=[];autosize=1;strokeColor=none;fillColor=none;labelBackgroundColor=none;fontColor=#1A1A1A;rounded=0;" vertex="1" parent="1">
          <mxGeometry x="926" y="723.89" width="24" height="26" as="geometry" />
        </mxCell>
        <mxCell id="2Lq3ukhQ7VVJQRNL60BJ-41" value="&lt;font style=&quot;font-size: 10px;&quot;&gt;1&lt;/font&gt;" style="text;html=1;align=center;verticalAlign=middle;resizable=0;points=[];autosize=1;strokeColor=none;fillColor=none;labelBackgroundColor=none;fontColor=#1A1A1A;rounded=0;" vertex="1" parent="1">
          <mxGeometry x="842" y="758.89" width="24" height="26" as="geometry" />
        </mxCell>
        <mxCell id="2Lq3ukhQ7VVJQRNL60BJ-42" value="&lt;font style=&quot;font-size: 10px;&quot;&gt;*&lt;/font&gt;" style="text;html=1;align=center;verticalAlign=middle;resizable=0;points=[];autosize=1;strokeColor=none;fillColor=none;labelBackgroundColor=none;fontColor=#1A1A1A;rounded=0;" vertex="1" parent="1">
          <mxGeometry x="756" y="693.89" width="22" height="26" as="geometry" />
        </mxCell>
        <mxCell id="2Lq3ukhQ7VVJQRNL60BJ-43" value="&lt;font style=&quot;font-size: 10px;&quot;&gt;1&lt;/font&gt;" style="text;html=1;align=center;verticalAlign=middle;resizable=0;points=[];autosize=1;strokeColor=none;fillColor=none;labelBackgroundColor=none;fontColor=#1A1A1A;rounded=0;" vertex="1" parent="1">
          <mxGeometry x="757" y="824" width="24" height="26" as="geometry" />
        </mxCell>
        <mxCell id="2Lq3ukhQ7VVJQRNL60BJ-44" value="&lt;font style=&quot;font-size: 10px;&quot;&gt;1&lt;/font&gt;" style="text;html=1;align=center;verticalAlign=middle;resizable=0;points=[];autosize=1;strokeColor=none;fillColor=none;labelBackgroundColor=none;fontColor=#1A1A1A;rounded=0;" vertex="1" parent="1">
          <mxGeometry x="840" y="824" width="24" height="26" as="geometry" />
        </mxCell>
        <mxCell id="2Lq3ukhQ7VVJQRNL60BJ-45" value="&lt;font style=&quot;font-size: 10px;&quot;&gt;1&lt;/font&gt;" style="text;html=1;align=center;verticalAlign=middle;resizable=0;points=[];autosize=1;strokeColor=none;fillColor=none;labelBackgroundColor=none;fontColor=#1A1A1A;rounded=0;" vertex="1" parent="1">
          <mxGeometry x="601.64" y="866" width="24" height="26" as="geometry" />
        </mxCell>
        <mxCell id="2Lq3ukhQ7VVJQRNL60BJ-46" value="&lt;font style=&quot;font-size: 10px;&quot;&gt;*&lt;/font&gt;" style="text;html=1;align=center;verticalAlign=middle;resizable=0;points=[];autosize=1;strokeColor=none;fillColor=none;labelBackgroundColor=none;fontColor=#1A1A1A;rounded=0;" vertex="1" parent="1">
          <mxGeometry x="561.64" y="869" width="22" height="26" as="geometry" />
        </mxCell>
        <mxCell id="2Lq3ukhQ7VVJQRNL60BJ-47" value="&lt;font style=&quot;font-size: 10px;&quot;&gt;1&lt;/font&gt;" style="text;html=1;align=center;verticalAlign=middle;resizable=0;points=[];autosize=1;strokeColor=none;fillColor=none;labelBackgroundColor=none;fontColor=#1A1A1A;rounded=0;" vertex="1" parent="1">
          <mxGeometry x="407" y="865" width="24" height="26" as="geometry" />
        </mxCell>
        <mxCell id="2Lq3ukhQ7VVJQRNL60BJ-48" value="&lt;font style=&quot;font-size: 10px;&quot;&gt;*&lt;/font&gt;" style="text;html=1;align=center;verticalAlign=middle;resizable=0;points=[];autosize=1;strokeColor=none;fillColor=none;labelBackgroundColor=none;fontColor=#1A1A1A;rounded=0;" vertex="1" parent="1">
          <mxGeometry x="369" y="868" width="22" height="26" as="geometry" />
        </mxCell>
        <mxCell id="2Lq3ukhQ7VVJQRNL60BJ-49" value="&lt;font style=&quot;font-size: 12px;&quot;&gt;*&lt;/font&gt;" style="text;html=1;align=center;verticalAlign=middle;resizable=0;points=[];autosize=1;strokeColor=none;fillColor=none;labelBackgroundColor=none;fontColor=#1A1A1A;rounded=0;" vertex="1" parent="1">
          <mxGeometry x="161" y="759" width="23" height="26" as="geometry" />
        </mxCell>
        <mxCell id="2Lq3ukhQ7VVJQRNL60BJ-50" value="&lt;font style=&quot;font-size: 10px;&quot;&gt;1&lt;/font&gt;" style="text;html=1;align=center;verticalAlign=middle;resizable=0;points=[];autosize=1;strokeColor=none;fillColor=none;labelBackgroundColor=none;fontColor=#1A1A1A;rounded=0;" vertex="1" parent="1">
          <mxGeometry x="162" y="589" width="24" height="26" as="geometry" />
        </mxCell>
        <mxCell id="2Lq3ukhQ7VVJQRNL60BJ-51" value="&lt;font style=&quot;font-size: 10px;&quot;&gt;*&lt;/font&gt;" style="text;html=1;align=center;verticalAlign=middle;resizable=0;points=[];autosize=1;strokeColor=none;fillColor=none;labelBackgroundColor=none;fontColor=#1A1A1A;rounded=0;" vertex="1" parent="1">
          <mxGeometry x="411" y="528" width="22" height="26" as="geometry" />
        </mxCell>
        <mxCell id="2Lq3ukhQ7VVJQRNL60BJ-52" value="&lt;font style=&quot;font-size: 10px;&quot;&gt;1&lt;/font&gt;&lt;span style=&quot;color: rgba(0, 0, 0, 0); font-family: monospace; font-size: 0px; text-align: start;&quot;&gt;%3CmxGraphModel%3E%3Croot%3E%3CmxCell%20id%3D%220%22%2F%3E%3CmxCell%20id%3D%221%22%20parent%3D%220%22%2F%3E%3CmxCell%20id%3D%222%22%20value%3D%22%26lt%3Bfont%20style%3D%26quot%3Bfont-size%3A%2010px%3B%26quot%3B%26gt%3B*%26lt%3B%2Ffont%26gt%3B%22%20style%3D%22text%3Bhtml%3D1%3Balign%3Dcenter%3BverticalAlign%3Dmiddle%3Bresizable%3D0%3Bpoints%3D%5B%5D%3Bautosize%3D1%3BstrokeColor%3Dnone%3BfillColor%3Dnone%3BlabelBackgroundColor%3Dnone%3BfontColor%3D%231A1A1A%3Brounded%3D0%3B%22%20vertex%3D%221%22%20parent%3D%221%22%3E%3CmxGeometry%20x%3D%22411%22%20y%3D%22528%22%20width%3D%2222%22%20height%3D%2226%22%20as%3D%22geometry%22%2F%3E%3C%2FmxCell%3E%3C%2Froot%3E%3C%2FmxGraphModel%3E&lt;/span&gt;" style="text;html=1;align=center;verticalAlign=middle;resizable=0;points=[];autosize=1;strokeColor=none;fillColor=none;labelBackgroundColor=none;fontColor=#1A1A1A;rounded=0;" vertex="1" parent="1">
          <mxGeometry x="594.64" y="810" width="24" height="26" as="geometry" />
        </mxCell>
        <mxCell id="2Lq3ukhQ7VVJQRNL60BJ-53" value="&lt;font style=&quot;font-size: 10px;&quot;&gt;1&lt;/font&gt;&lt;span style=&quot;color: rgba(0, 0, 0, 0); font-family: monospace; font-size: 0px; text-align: start;&quot;&gt;%3CmxGraphModel%3E%3Croot%3E%3CmxCell%20id%3D%220%22%2F%3E%3CmxCell%20id%3D%221%22%20parent%3D%220%22%2F%3E%3CmxCell%20id%3D%222%22%20value%3D%22%26lt%3Bfont%20style%3D%26quot%3Bfont-size%3A%2010px%3B%26quot%3B%26gt%3B*%26lt%3B%2Ffont%26gt%3B%22%20style%3D%22text%3Bhtml%3D1%3Balign%3Dcenter%3BverticalAlign%3Dmiddle%3Bresizable%3D0%3Bpoints%3D%5B%5D%3Bautosize%3D1%3BstrokeColor%3Dnone%3BfillColor%3Dnone%3BlabelBackgroundColor%3Dnone%3BfontColor%3D%231A1A1A%3Brounded%3D0%3B%22%20vertex%3D%221%22%20parent%3D%221%22%3E%3CmxGeometry%20x%3D%22411%22%20y%3D%22528%22%20width%3D%2222%22%20height%3D%2226%22%20as%3D%22geometry%22%2F%3E%3C%2FmxCell%3E%3C%2Froot%3E%3C%2FmxGraphModel%3E&lt;/span&gt;" style="text;html=1;align=center;verticalAlign=middle;resizable=0;points=[];autosize=1;strokeColor=none;fillColor=none;labelBackgroundColor=none;fontColor=#1A1A1A;rounded=0;" vertex="1" parent="1">
          <mxGeometry x="700.64" y="399" width="24" height="26" as="geometry" />
        </mxCell>
        <mxCell id="2Lq3ukhQ7VVJQRNL60BJ-54" value="&lt;span style=&quot;font-size: 10px;&quot;&gt;*&lt;/span&gt;" style="text;html=1;align=center;verticalAlign=middle;resizable=0;points=[];autosize=1;strokeColor=none;fillColor=none;labelBackgroundColor=none;fontColor=#1A1A1A;rounded=0;" vertex="1" parent="1">
          <mxGeometry x="702.64" y="634.89" width="22" height="26" as="geometry" />
        </mxCell>
        <mxCell id="2Lq3ukhQ7VVJQRNL60BJ-59" value="&lt;span style=&quot;font-weight: normal;&quot;&gt;Model_Stylist&lt;/span&gt;" style="swimlane;fontStyle=1;align=center;verticalAlign=top;childLayout=stackLayout;horizontal=1;startSize=26;horizontalStack=0;resizeParent=1;resizeParentMax=0;resizeLast=0;collapsible=1;marginBottom=0;whiteSpace=wrap;html=1;strokeColor=#D0CEE2;fontColor=#1A1A1A;fillColor=#FAD9D5;" vertex="1" parent="1">
          <mxGeometry x="1057" y="484" width="99" height="71" as="geometry" />
        </mxCell>
        <mxCell id="2Lq3ukhQ7VVJQRNL60BJ-60" value="IdModel (pk)(fk)" style="text;strokeColor=none;fillColor=none;align=left;verticalAlign=top;spacingLeft=4;spacingRight=4;overflow=hidden;rotatable=0;points=[[0,0.5],[1,0.5]];portConstraint=eastwest;whiteSpace=wrap;html=1;fontColor=#1A1A1A;" vertex="1" parent="2Lq3ukhQ7VVJQRNL60BJ-59">
          <mxGeometry y="26" width="99" height="23" as="geometry" />
        </mxCell>
        <mxCell id="2Lq3ukhQ7VVJQRNL60BJ-62" value="IdStylist (pk)(fk)" style="text;strokeColor=none;fillColor=none;align=left;verticalAlign=top;spacingLeft=4;spacingRight=4;overflow=hidden;rotatable=0;points=[[0,0.5],[1,0.5]];portConstraint=eastwest;whiteSpace=wrap;html=1;fontColor=#1A1A1A;" vertex="1" parent="2Lq3ukhQ7VVJQRNL60BJ-59">
          <mxGeometry y="49" width="99" height="22" as="geometry" />
        </mxCell>
        <mxCell id="2Lq3ukhQ7VVJQRNL60BJ-63" value="" style="endArrow=none;html=1;rounded=0;strokeColor=#09555B;fontColor=#1A1A1A;entryX=-0.001;entryY=0.394;entryDx=0;entryDy=0;entryPerimeter=0;exitX=1.002;exitY=0.869;exitDx=0;exitDy=0;exitPerimeter=0;" edge="1" parent="1">
          <mxGeometry width="50" height="50" relative="1" as="geometry">
            <mxPoint x="975.2" y="520.087" as="sourcePoint" />
            <mxPoint x="1056.901" y="520.062" as="targetPoint" />
          </mxGeometry>
        </mxCell>
        <mxCell id="2Lq3ukhQ7VVJQRNL60BJ-65" value="&lt;span style=&quot;font-weight: normal;&quot;&gt;Designer_Piece&lt;/span&gt;" style="swimlane;fontStyle=1;align=center;verticalAlign=top;childLayout=stackLayout;horizontal=1;startSize=26;horizontalStack=0;resizeParent=1;resizeParentMax=0;resizeLast=0;collapsible=1;marginBottom=0;whiteSpace=wrap;html=1;strokeColor=#D0CEE2;fontColor=#1A1A1A;fillColor=#FAD9D5;" vertex="1" parent="1">
          <mxGeometry x="102.5" y="704.89" width="121" height="52" as="geometry" />
        </mxCell>
        <mxCell id="2Lq3ukhQ7VVJQRNL60BJ-66" value="IdDesigner (pk)(fk)" style="text;strokeColor=none;fillColor=none;align=left;verticalAlign=top;spacingLeft=4;spacingRight=4;overflow=hidden;rotatable=0;points=[[0,0.5],[1,0.5]];portConstraint=eastwest;whiteSpace=wrap;html=1;fontColor=#1A1A1A;" vertex="1" parent="2Lq3ukhQ7VVJQRNL60BJ-65">
          <mxGeometry y="26" width="121" height="26" as="geometry" />
        </mxCell>
        <mxCell id="2Lq3ukhQ7VVJQRNL60BJ-68" value="" style="endArrow=none;html=1;rounded=0;strokeColor=#09555B;fontColor=#1A1A1A;entryX=0.488;entryY=0.99;entryDx=0;entryDy=0;entryPerimeter=0;exitX=0.509;exitY=0.006;exitDx=0;exitDy=0;exitPerimeter=0;" edge="1" parent="1" source="2Lq3ukhQ7VVJQRNL60BJ-65" target="iBeRQEw0bHEhuUZA9688-349">
          <mxGeometry width="50" height="50" relative="1" as="geometry">
            <mxPoint x="120" y="688.14" as="sourcePoint" />
            <mxPoint x="143" y="633" as="targetPoint" />
          </mxGeometry>
        </mxCell>
        <mxCell id="2Lq3ukhQ7VVJQRNL60BJ-69" value="" style="endArrow=none;html=1;rounded=0;strokeColor=#09555B;fontColor=#1A1A1A;exitX=0;exitY=0.5;exitDx=0;exitDy=0;entryX=0.497;entryY=1.007;entryDx=0;entryDy=0;entryPerimeter=0;" edge="1" parent="1" source="iBeRQEw0bHEhuUZA9688-547" target="2Lq3ukhQ7VVJQRNL60BJ-66">
          <mxGeometry width="50" height="50" relative="1" as="geometry">
            <mxPoint x="163.5" y="868" as="sourcePoint" />
            <mxPoint x="163" y="757" as="targetPoint" />
            <Array as="points">
              <mxPoint x="162" y="921" />
            </Array>
          </mxGeometry>
        </mxCell>
        <mxCell id="2Lq3ukhQ7VVJQRNL60BJ-70" value="&lt;font style=&quot;font-size: 12px;&quot;&gt;*&lt;/font&gt;" style="text;html=1;align=center;verticalAlign=middle;resizable=0;points=[];autosize=1;strokeColor=none;fillColor=none;labelBackgroundColor=none;fontColor=#1A1A1A;rounded=0;" vertex="1" parent="1">
          <mxGeometry x="1035" y="499.89" width="23" height="26" as="geometry" />
        </mxCell>
        <mxCell id="2Lq3ukhQ7VVJQRNL60BJ-71" value="&lt;font style=&quot;font-size: 12px;&quot;&gt;*&lt;/font&gt;" style="text;html=1;align=center;verticalAlign=middle;resizable=0;points=[];autosize=1;strokeColor=none;fillColor=none;labelBackgroundColor=none;fontColor=#1A1A1A;rounded=0;" vertex="1" parent="1">
          <mxGeometry x="1103" y="465.89" width="23" height="26" as="geometry" />
        </mxCell>
        <mxCell id="2Lq3ukhQ7VVJQRNL60BJ-72" value="&lt;font style=&quot;font-size: 12px;&quot;&gt;*&lt;/font&gt;" style="text;html=1;align=center;verticalAlign=middle;resizable=0;points=[];autosize=1;strokeColor=none;fillColor=none;labelBackgroundColor=none;fontColor=#1A1A1A;rounded=0;" vertex="1" parent="1">
          <mxGeometry x="161" y="682.89" width="23" height="26" as="geometry" />
        </mxCell>
        <mxCell id="2Lq3ukhQ7VVJQRNL60BJ-73" value="&lt;font style=&quot;font-size: 10px;&quot;&gt;1&lt;/font&gt;" style="text;html=1;align=center;verticalAlign=middle;resizable=0;points=[];autosize=1;strokeColor=none;fillColor=none;labelBackgroundColor=none;fontColor=#1A1A1A;rounded=0;" vertex="1" parent="1">
          <mxGeometry x="208" y="897" width="24" height="26" as="geometry" />
        </mxCell>
      </root>
    </mxGraphModel>
  </diagram>
</mxfile>
